<svg xmlns="http://www.w3.org/2000/svg" width="170" height="31" viewBox="0 0 170 31" fill="none"><path d="M14.1279 3.29536C14.465 2.25812 15.9324 2.25812 16.2694 3.29536L18.3582 9.7241C18.5089 10.188 18.9412 10.502 19.429 10.502H26.1885C27.2791 10.502 27.7326 11.8976 26.8503 12.5387L21.3817 16.5119C20.9871 16.7985 20.822 17.3067 20.9727 17.7706L23.0615 24.1993C23.3985 25.2365 22.2114 26.0991 21.329 25.458L15.8604 21.4848C15.4658 21.1982 14.9315 21.1982 14.5369 21.4848L9.06831 25.458C8.18599 26.0991 6.99883 25.2365 7.33584 24.1993L9.42467 17.7706C9.57539 17.3067 9.41028 16.7985 9.01569 16.5119L3.54707 12.5387C2.66475 11.8976 3.1182 10.502 4.20882 10.502H10.9684C11.4561 10.502 11.8884 10.188 12.0391 9.7241L14.1279 3.29536Z" fill="#FFDE16"></path><path d="M49.0264 3.29536C49.3634 2.25812 50.8308 2.25812 51.1678 3.29536L53.2567 9.7241C53.4074 10.188 53.8397 10.502 54.3274 10.502H61.087C62.1776 10.502 62.631 11.8976 61.7487 12.5387L56.2801 16.5119C55.8855 16.7985 55.7204 17.3067 55.8711 17.7706L57.9599 24.1993C58.297 25.2365 57.1098 26.0991 56.2275 25.458L50.7589 21.4848C50.3643 21.1982 49.83 21.1982 49.4354 21.4848L43.9668 25.458C43.0844 26.0991 41.8973 25.2365 42.2343 24.1993L44.3231 17.7706C44.4738 17.3067 44.3087 16.7985 43.9141 16.5119L38.4455 12.5387C37.5632 11.8976 38.0166 10.502 39.1073 10.502H45.8668C46.3546 10.502 46.7868 10.188 46.9376 9.7241L49.0264 3.29536Z" fill="#FFDE16"></path><path d="M83.9287 3.29536C84.2657 2.25812 85.7332 2.25812 86.0702 3.29536L88.159 9.7241C88.3097 10.188 88.742 10.502 89.2297 10.502H95.9893C97.0799 10.502 97.5334 11.8976 96.6511 12.5387L91.1824 16.5119C90.7879 16.7985 90.6227 17.3067 90.7735 17.7706L92.8623 24.1993C93.1993 25.2365 92.0121 26.0991 91.1298 25.458L85.6612 21.4848C85.2666 21.1982 84.7323 21.1982 84.3377 21.4848L78.8691 25.458C77.9868 26.0991 76.7996 25.2365 77.1366 24.1993L79.2255 17.7706C79.3762 17.3067 79.2111 16.7985 78.8165 16.5119L73.3479 12.5387C72.4655 11.8976 72.919 10.502 74.0096 10.502H80.7692C81.2569 10.502 81.6892 10.188 81.8399 9.7241L83.9287 3.29536Z" fill="#FFDE16"></path><path d="M118.831 3.29536C119.168 2.25812 120.636 2.25812 120.973 3.29536L123.061 9.7241C123.212 10.188 123.644 10.502 124.132 10.502H130.892C131.982 10.502 132.436 11.8976 131.553 12.5387L126.085 16.5119C125.69 16.7985 125.525 17.3067 125.676 17.7706L127.765 24.1993C128.102 25.2365 126.914 26.0991 126.032 25.458L120.564 21.4848C120.169 21.1982 119.635 21.1982 119.24 21.4848L113.771 25.458C112.889 26.0991 111.702 25.2365 112.039 24.1993L114.128 17.7706C114.279 17.3067 114.113 16.7985 113.719 16.5119L108.25 12.5387C107.368 11.8976 107.821 10.502 108.912 10.502H115.672C116.159 10.502 116.592 10.188 116.742 9.7241L118.831 3.29536Z" fill="#FFDE16"></path><path d="M153.73 3.29536C154.067 2.25812 155.534 2.25812 155.871 3.29536L157.96 9.7241C158.111 10.188 158.543 10.502 159.031 10.502H165.79C166.881 10.502 167.334 11.8976 166.452 12.5387L160.983 16.5119C160.589 16.7985 160.424 17.3067 160.574 17.7706L162.663 24.1993C163 25.2365 161.813 26.0991 160.931 25.458L155.462 21.4848C155.067 21.1982 154.533 21.1982 154.138 21.4848L148.67 25.458C147.788 26.0991 146.6 25.2365 146.937 24.1993L149.026 17.7706C149.177 17.3067 149.012 16.7985 148.617 16.5119L143.149 12.5387C142.266 11.8976 142.72 10.502 143.81 10.502H150.57C151.058 10.502 151.49 10.188 151.641 9.7241L153.73 3.29536Z" fill="#FFDE16"></path></svg>