<svg xmlns="http://www.w3.org/2000/svg" width="147" height="147" viewBox="0 0 147 147" fill="none"><circle cx="73.4021" cy="73.4021" r="73.4021" fill="#3AB34A"></circle><g clip-path="url(#clip0_835_221)"><path d="M57.5263 66.3369C51.7743 69.1486 47.8125 75.0572 47.8125 81.8911V90.7738" stroke="white" stroke-width="4.1005" stroke-miterlimit="22.9256" stroke-linecap="round" stroke-linejoin="round"></path><path d="M80.1532 73.321C78.3543 70.172 75.5946 67.6427 72.2734 66.1323" stroke="white" stroke-width="4.1005" stroke-miterlimit="22.9256" stroke-linecap="round" stroke-linejoin="round"></path><path d="M72.3802 66.7358C72.479 67.2185 72.5308 67.7182 72.5308 68.2299C72.5308 72.3244 69.2116 75.6438 65.117 75.6438C61.0223 75.6438 57.7031 72.3245 57.7031 68.2299C57.7031 67.7805 57.743 67.3405 57.8197 66.9133" stroke="white" stroke-width="4.1005" stroke-miterlimit="22.9256" stroke-linecap="round" stroke-linejoin="round"></path><path d="M80.0653 99.5073C80.0653 103.432 76.8834 106.614 72.9584 106.614C69.0334 106.614 65.8516 103.432 65.8516 99.5073" stroke="white" stroke-width="4.1005" stroke-miterlimit="10" stroke-linecap="round" stroke-linejoin="round"></path><path d="M91.1055 80.1733C95.1801 81.5828 98.1062 85.4534 98.1062 90.0074V91.286" stroke="white" stroke-width="4.1005" stroke-miterlimit="10" stroke-linecap="round" stroke-linejoin="round"></path><path d="M77.2969 91.7065V90.0072C77.2969 85.4748 80.1952 81.6194 84.2397 80.1934" stroke="white" stroke-width="4.1005" stroke-miterlimit="10" stroke-linecap="round" stroke-linejoin="round"></path><path d="M76.9928 49.2456V56.3548C76.9928 62.9132 71.6761 68.2301 65.1175 68.2301C58.559 68.2301 53.2422 62.9134 53.2422 56.3548" stroke="white" stroke-width="4.1005" stroke-miterlimit="22.9256" stroke-linecap="round" stroke-linejoin="round"></path><path d="M78.2517 45.0084V40.7676H61.4685C56.9268 40.7676 53.2446 44.4489 53.2437 48.9907L53.2422 56.3593L58.6158 50.7456L72.3483 50.862C75.6006 50.8894 78.2517 48.2607 78.2517 45.0084Z" stroke="white" stroke-width="4.1005" stroke-miterlimit="10" stroke-linecap="round" stroke-linejoin="round"></path><path d="M87.7028 80.81C91.8513 80.81 95.2143 77.447 95.2143 73.2985C95.2143 69.1501 91.8513 65.7871 87.7028 65.7871C83.5544 65.7871 80.1914 69.1501 80.1914 73.2985C80.1914 77.447 83.5544 80.81 87.7028 80.81Z" stroke="white" stroke-width="4.1005" stroke-miterlimit="22.9256" stroke-linecap="round" stroke-linejoin="round"></path><path d="M43.1875 99.1816V91.6465H64.7573C69.2866 91.6465 72.9583 95.3182 72.9583 99.8475M72.9583 99.8475V99.8766M72.9583 99.8475C72.9583 95.3182 76.6301 91.6465 81.1593 91.6465H102.729V99.1816" stroke="white" stroke-width="4.1005" stroke-miterlimit="10" stroke-linecap="round" stroke-linejoin="round"></path><path d="M40.0078 99.5073H65.8532" stroke="white" stroke-width="4.1005" stroke-miterlimit="10" stroke-linecap="round" stroke-linejoin="round"></path><path d="M80.0625 99.5073H105.908" stroke="white" stroke-width="4.1005" stroke-miterlimit="10" stroke-linecap="round" stroke-linejoin="round"></path><path d="M80.3359 72.5571H95.0582" stroke="white" stroke-width="4.1005" stroke-miterlimit="22.9256" stroke-linecap="round" stroke-linejoin="round"></path></g><defs><clipPath id="clip0_835_221"><rect width="70" height="70" fill="white" transform="translate(37.957 38.6907)"></rect></clipPath></defs></svg>