<svg xmlns="http://www.w3.org/2000/svg" width="147" height="147" viewBox="0 0 147 147" fill="none"><circle cx="73.4021" cy="73.4021" r="73.4021" fill="#3AB34A"></circle><path fill-rule="evenodd" clip-rule="evenodd" d="M45.2081 80.6212C47.2779 80.6213 49.605 81.8942 49.9424 85.4688L49.6827 94.2335C49.6956 94.3088 49.8625 94.5581 50.0596 94.6456L53.3477 96.0977C51.5653 93.7528 50.9751 91.9779 51.5001 90.6505C52.0152 89.3484 53.385 88.9833 54.1124 88.9708C55.1423 88.9708 56.3647 89.3738 57.0821 89.9288L68.4737 98.7276C69.2486 99.3276 69.8844 100.426 69.9844 101.333L71.2813 113H54.3018L41.5606 100.023C40.8607 99.3026 40.4303 98.1007 40.5352 97.1583L42.2032 82.9883C42.3309 81.8786 43.3456 80.881 44.5704 80.6661C44.5804 80.6651 44.8248 80.6212 45.2081 80.6212ZM101.662 80.6192C102.05 80.6192 102.295 80.6641 102.3 80.6641C103.525 80.8792 104.54 81.879 104.667 82.9864L106.332 97.1583C106.437 98.1007 106.007 99.3061 105.307 100.023L92.5655 113H75.586L76.8838 101.333C76.9838 100.426 77.6186 99.3281 78.3936 98.7256L89.7852 89.9258C90.5051 89.3709 91.7275 88.9689 92.7549 88.9688H92.7598C93.4873 88.9813 94.8552 89.3461 95.3702 90.6485C95.8951 91.9784 95.3049 93.7509 93.5225 96.0958L96.8096 94.6436C97.0071 94.5561 97.1726 94.3055 97.1875 94.2305L96.9278 85.4659C97.2654 81.8939 99.5949 80.6193 101.662 80.6192ZM45.2051 83.046C45.0751 83.046 44.9875 83.0566 44.96 83.0616C44.7951 83.0917 44.6302 83.2416 44.5977 83.3116L42.9424 97.4356C42.925 97.6107 43.0781 98.1059 43.293 98.3233L55.3194 110.572H68.5743L67.5792 101.601C67.5567 101.381 67.2816 100.871 66.9942 100.646L55.6075 91.8458C55.3425 91.6433 54.6419 91.3956 54.1719 91.3956C54.0071 91.4031 53.7821 91.4831 53.7569 91.543C53.7519 91.5555 53.4573 92.4782 55.9043 95.4102C56.3561 95.9544 57.4284 100.138 57.4317 100.15L49.0772 96.8633C48.0073 96.3908 47.2249 95.2251 47.2549 94.1602L47.5176 85.544C47.3551 83.9391 46.5776 83.046 45.2051 83.046ZM101.665 83.046C100.293 83.046 99.5126 83.9391 99.3526 85.544L99.6153 94.1612C99.6426 95.226 98.8619 96.3909 97.792 96.8633L89.4375 100.15C89.4375 100.15 90.5097 95.958 90.9649 95.4112C93.4098 92.4788 93.1174 91.5555 93.1124 91.543C93.0864 91.4806 92.8619 91.4031 92.6973 91.3956C92.2274 91.3957 91.5277 91.6433 91.2627 91.8458L79.876 100.646C79.5885 100.871 79.3161 101.381 79.2911 101.601L78.2959 110.572H91.5499L103.577 98.3233C103.792 98.1083 103.947 97.6106 103.927 97.4356L102.273 83.3116C102.24 83.2392 102.073 83.0918 101.91 83.0616C101.883 83.0566 101.795 83.046 101.665 83.046ZM70.2208 33.9639C71.9557 32.679 74.9002 32.679 76.6426 33.9639L81.0801 37.2286C81.3576 35.7038 82.6947 34.5462 84.2969 34.546H87.6524C89.4597 34.5461 90.9297 36.014 90.9297 37.8214V44.4756L98.7188 50.213C100.629 51.6129 101.042 54.3131 99.6368 56.2305L99.0215 57.0596C98.3491 57.9721 97.3287 58.5546 96.2188 58.7296V79.7442C96.2186 83.9064 92.7141 87.2911 88.4043 87.2911H58.4532C54.1436 87.2909 50.6389 83.9038 50.6387 79.7442V58.71C49.5438 58.5375 48.5094 57.972 47.837 57.0596L47.2237 56.2305C46.5462 55.3056 46.2665 54.1699 46.4415 53.0274C46.614 51.8876 47.2213 50.8849 48.1436 50.21L70.2208 33.9639ZM75.2051 44.878C74.3077 44.2207 72.5583 44.2208 71.6583 44.878L53.8565 57.9747C53.6116 58.1596 53.3439 58.3025 53.0665 58.42V79.7442C53.0666 82.5663 55.4836 84.8632 58.4532 84.8633H88.4043C91.3791 84.8633 93.7938 82.5664 93.794 79.7442V58.3848C93.5241 58.2599 93.2488 58.1546 93.004 57.9747L75.2051 44.878ZM81.8487 58.9678C82.896 58.9678 83.8685 59.4374 84.5235 60.2647C85.6734 61.7271 85.4185 63.8548 83.9561 65.0147C83.9321 65.0389 81.0751 67.6286 80.5469 68.0821C80.2644 68.5946 79.9515 71.7343 80.084 72.4268C80.276 72.7684 82.4489 77.4904 82.461 77.5167C82.881 78.4016 82.9337 79.4069 82.5987 80.3419C82.2662 81.2766 81.5891 82.0244 80.6944 82.4493C80.197 82.6867 79.6594 82.8086 79.1045 82.8087C77.6797 82.8087 76.367 81.9788 75.752 80.6915L73.4395 77.5987L70.9942 80.8917C70.3141 82.3988 67.9672 83.3086 66.17 82.4464C64.3301 81.5714 63.5372 79.3564 64.4122 77.504C64.4193 77.4886 66.5979 72.7608 66.8575 72.2442C66.9174 71.7338 66.6096 68.5926 66.2247 67.9698C65.7897 67.6223 62.8545 64.962 62.8545 64.962C61.4549 63.857 61.1999 61.7246 62.3497 60.2598C63.4571 58.8474 65.6852 58.5797 67.1026 59.6846C67.1425 59.6981 70.5394 61.7169 73.4346 61.7169C76.3741 61.7167 79.8374 59.634 79.879 59.6075C80.3564 59.2251 81.0963 58.9679 81.8487 58.9678ZM82.6094 61.7598C82.332 61.4024 81.9017 61.0976 81.2569 61.5948C80.9794 61.7773 77.0644 64.1425 73.4346 64.1426C69.8034 64.1426 65.8893 61.7791 65.7247 61.6778C65.3922 61.4303 65.1672 61.3946 65.0147 61.3946C64.7148 61.3946 64.4399 61.5249 64.2549 61.7598C63.9275 62.1773 64 62.7824 64.42 63.1124C64.489 63.1711 67.3739 65.7839 67.9043 66.2393C69.1418 67.3143 69.5075 72.3571 69.0225 73.3321C68.7598 73.8475 66.6075 78.5294 66.6075 78.5294C66.3001 79.1817 66.5698 79.951 67.2071 80.251C67.8446 80.556 68.6299 80.266 68.9249 79.6485L73.4346 73.5294L77.8213 79.4464C78.2838 80.3412 79.0315 80.5538 79.6514 80.254C79.9639 80.104 80.202 79.8489 80.3145 79.5264C80.4269 79.204 80.4117 78.851 80.2618 78.5411C80.2423 78.4947 78.0979 73.8374 77.8438 73.3292C77.359 72.3586 77.7222 67.3146 78.9571 66.2423C79.4848 65.7892 82.3538 63.1923 82.3838 63.1651C82.8612 62.7827 82.9367 62.1773 82.6094 61.7598ZM73.4317 48.5909C76.5915 48.591 79.1612 51.1591 79.1612 54.3214C79.161 57.4835 76.5913 60.0556 73.4317 60.0557C70.2693 60.0557 67.6993 57.4857 67.6993 54.3233C67.6994 51.161 70.2694 48.5909 73.4317 48.5909ZM73.4317 51.0137C71.6068 51.0137 70.1241 52.4989 70.1241 54.3214C70.1243 56.1436 71.6069 57.6309 73.4317 57.6309C75.2514 57.6308 76.7362 56.1435 76.7364 54.3214C76.7364 52.499 75.254 51.0138 73.4317 51.0137ZM75.2051 35.919C74.3052 35.2541 72.5583 35.2538 71.6583 35.9161L49.5792 52.1631C49.1792 52.4581 48.9135 52.8952 48.836 53.3926C48.7635 53.8926 48.8838 54.3906 49.1788 54.793L49.7911 55.6221C50.3785 56.4171 51.6214 56.6125 52.4239 56.0225L70.2227 42.9278C71.0901 42.2879 72.2328 41.9356 73.4327 41.9356C74.6326 41.9356 75.7706 42.2859 76.6456 42.9258L94.4415 56.0225C95.2464 56.6125 96.4843 56.4171 97.0743 55.6221L97.6846 54.793C98.2996 53.9581 98.1192 52.7751 97.2842 52.1651L88.5049 45.7032V37.8214C88.5049 37.3514 88.1243 36.9708 87.6543 36.9708H84.2999C83.8324 36.9708 83.4551 37.3514 83.4551 37.8214V41.9835L75.2051 35.919Z" fill="white"></path><path d="M45.2081 80.6212L45.2081 80.1767H45.2081V80.6212ZM49.9424 85.4688L50.3867 85.482L50.3875 85.4545L50.3849 85.427L49.9424 85.4688ZM49.6827 94.2335L49.2384 94.2203L49.2371 94.2647L49.2446 94.3085L49.6827 94.2335ZM50.0596 94.6456L49.8793 95.0518L49.8801 95.0521L50.0596 94.6456ZM53.3477 96.0977L53.1682 96.5043L53.7015 95.8288L53.3477 96.0977ZM51.5001 90.6505L51.0868 90.487L51.0868 90.487L51.5001 90.6505ZM54.1124 88.9708L54.1124 88.5263L54.1047 88.5264L54.1124 88.9708ZM57.0821 89.9288L56.8102 90.2803L56.8104 90.2805L57.0821 89.9288ZM68.4737 98.7276L68.7458 98.3762L68.7454 98.3759L68.4737 98.7276ZM69.9844 101.333L69.5427 101.382L69.5427 101.382L69.9844 101.333ZM71.2813 113V113.445H71.7779L71.723 112.951L71.2813 113ZM54.3018 113L53.9847 113.311L54.1153 113.445H54.3018V113ZM41.5606 100.023L41.2419 100.332L41.2435 100.334L41.5606 100.023ZM40.5352 97.1583L40.0938 97.1063L40.0935 97.1091L40.5352 97.1583ZM42.2032 82.9883L42.6446 83.0403L42.6447 83.0392L42.2032 82.9883ZM44.5704 80.6661L44.5286 80.2236L44.511 80.2253L44.4935 80.2283L44.5704 80.6661ZM101.662 80.6192V80.1748H101.662L101.662 80.6192ZM102.3 80.6641L102.377 80.2264L102.339 80.2197H102.3V80.6641ZM104.667 82.9864L104.226 83.0372L104.226 83.0383L104.667 82.9864ZM106.332 97.1583L106.774 97.1091L106.773 97.1064L106.332 97.1583ZM105.307 100.023L105.624 100.335L105.625 100.334L105.307 100.023ZM92.5655 113V113.445H92.752L92.8826 113.311L92.5655 113ZM75.586 113L75.1443 112.951L75.0894 113.445H75.586V113ZM76.8838 101.333L77.3256 101.382L77.3256 101.382L76.8838 101.333ZM78.3936 98.7256L78.1219 98.3739L78.1208 98.3748L78.3936 98.7256ZM89.7852 89.9258L89.5139 89.5738L89.5135 89.5741L89.7852 89.9258ZM92.7549 88.9688V88.5244H92.7549L92.7549 88.9688ZM92.7598 88.9688L92.7675 88.5244H92.7598V88.9688ZM95.3702 90.6485L95.7836 90.4853L95.7835 90.4851L95.3702 90.6485ZM93.5225 96.0958L93.1687 95.8268L93.7021 96.5023L93.5225 96.0958ZM96.8096 94.6436L96.9892 95.0502L96.9897 95.05L96.8096 94.6436ZM97.1875 94.2305L97.6234 94.3177L97.6333 94.268L97.6318 94.2174L97.1875 94.2305ZM96.9278 85.4659L96.4853 85.4241L96.4827 85.4515L96.4835 85.479L96.9278 85.4659ZM45.2051 83.046L45.2051 82.6015H45.2051V83.046ZM44.96 83.0616L44.8805 82.6243L44.8803 82.6244L44.96 83.0616ZM44.5977 83.3116L44.1946 83.1244L44.1646 83.1891L44.1563 83.2599L44.5977 83.3116ZM42.9424 97.4356L42.5009 97.3839L42.5002 97.3916L42.9424 97.4356ZM43.293 98.3233L43.6102 98.0119L43.6091 98.0109L43.293 98.3233ZM55.3194 110.572L55.0022 110.884L55.1329 111.017H55.3194V110.572ZM68.5743 110.572V111.017H69.0707L69.016 110.523L68.5743 110.572ZM67.5792 101.601L67.137 101.646L67.1374 101.65L67.5792 101.601ZM66.9942 100.646L67.2682 100.296L67.266 100.294L66.9942 100.646ZM55.6075 91.8458L55.8792 91.4941L55.8773 91.4926L55.6075 91.8458ZM54.1719 91.3956V90.9511H54.1617L54.1515 90.9516L54.1719 91.3956ZM53.7569 91.543L53.3472 91.3706L53.3442 91.378L53.7569 91.543ZM55.9043 95.4102L56.2463 95.1263L56.2456 95.1254L55.9043 95.4102ZM57.4317 100.15L57.269 100.564L58.0781 100.882L57.8622 100.04L57.4317 100.15ZM49.0772 96.8633L48.8976 97.2699L48.906 97.2736L48.9145 97.2769L49.0772 96.8633ZM47.2549 94.1602L46.8107 94.1467L46.8107 94.1477L47.2549 94.1602ZM47.5176 85.544L47.9619 85.5576L47.9628 85.5283L47.9598 85.4992L47.5176 85.544ZM101.665 83.046L101.665 82.6015H101.665V83.046ZM99.3526 85.544L98.9103 85.4999L98.9075 85.5287L98.9084 85.5576L99.3526 85.544ZM99.6153 94.1612L100.06 94.1498L100.06 94.1477L99.6153 94.1612ZM97.792 96.8633L97.9548 97.2769L97.9632 97.2736L97.9716 97.2699L97.792 96.8633ZM89.4375 100.15L89.007 100.04L88.7917 100.882L89.6003 100.564L89.4375 100.15ZM90.9649 95.4112L90.6235 95.1266L90.6233 95.1269L90.9649 95.4112ZM93.1124 91.543L93.525 91.378L93.5229 91.3727L93.1124 91.543ZM92.6973 91.3956L92.7175 90.9516L92.7073 90.9511L92.6972 90.9511L92.6973 91.3956ZM91.2627 91.8458L90.9929 91.4926L90.991 91.4941L91.2627 91.8458ZM79.876 100.646L79.6042 100.294L79.6021 100.296L79.876 100.646ZM79.2911 101.601L78.8495 101.55L78.8493 101.552L79.2911 101.601ZM78.2959 110.572L77.8542 110.523L77.7995 111.017H78.2959V110.572ZM91.5499 110.572V111.017H91.7363L91.867 110.884L91.5499 110.572ZM103.577 98.3233L103.263 98.009L103.26 98.0119L103.577 98.3233ZM103.927 97.4356L104.368 97.3851L104.368 97.3839L103.927 97.4356ZM102.273 83.3116L102.714 83.2599L102.706 83.1921L102.678 83.1298L102.273 83.3116ZM101.91 83.0616L101.991 82.6246L101.99 82.6243L101.91 83.0616ZM70.2208 33.9639L70.4842 34.3219L70.4853 34.3211L70.2208 33.9639ZM76.6426 33.9639L76.3788 34.3216L76.3792 34.3219L76.6426 33.9639ZM81.0801 37.2286L80.8167 37.5866L81.39 38.0083L81.5174 37.3081L81.0801 37.2286ZM84.2969 34.546V34.1015L84.2969 34.1015L84.2969 34.546ZM87.6524 34.546L87.6524 34.1015H87.6524V34.546ZM90.9297 44.4756H90.4853V44.7003L90.6662 44.8335L90.9297 44.4756ZM98.7188 50.213L98.4552 50.5708L98.4561 50.5714L98.7188 50.213ZM99.6368 56.2305L99.9937 56.4954L99.9953 56.4932L99.6368 56.2305ZM99.0215 57.0596L98.6646 56.7948L98.6638 56.796L99.0215 57.0596ZM96.2188 58.7296L96.1496 58.2905L95.7744 58.3497V58.7296H96.2188ZM96.2188 79.7442L96.6632 79.7442V79.7442H96.2188ZM58.4532 87.2911L58.4532 87.7355H58.4532V87.2911ZM50.6387 79.7442H50.1943V79.7442L50.6387 79.7442ZM50.6387 58.71H51.0832V58.3301L50.7079 58.271L50.6387 58.71ZM47.837 57.0596L48.1947 56.796L48.1943 56.7953L47.837 57.0596ZM47.2237 56.2305L46.8651 56.4932L46.8664 56.4948L47.2237 56.2305ZM46.4415 53.0274L46.8808 53.0947L46.8809 53.0939L46.4415 53.0274ZM48.1436 50.21L48.4061 50.5687L48.407 50.568L48.1436 50.21ZM75.2051 44.878L75.4685 44.52L75.4678 44.5194L75.2051 44.878ZM71.6583 44.878L71.3961 44.5191L71.3949 44.52L71.6583 44.878ZM53.8565 57.9747L53.5931 57.6166L53.5887 57.62L53.8565 57.9747ZM53.0665 58.42L52.8932 58.0107L52.622 58.1255V58.42H53.0665ZM53.0665 79.7442H52.622V79.7442L53.0665 79.7442ZM58.4532 84.8633L58.4531 85.3078H58.4532V84.8633ZM93.794 79.7442L94.2384 79.7442V79.7442H93.794ZM93.794 58.3848H94.2384V58.1008L93.9807 57.9815L93.794 58.3848ZM93.004 57.9747L92.7406 58.3327L92.7408 58.3328L93.004 57.9747ZM81.8487 58.9678V58.5234H81.8486L81.8487 58.9678ZM84.5235 60.2647L84.8729 59.99L84.8719 59.9888L84.5235 60.2647ZM83.9561 65.0147L83.6799 64.6665L83.6591 64.683L83.6404 64.7019L83.9561 65.0147ZM80.5469 68.0821L80.2574 67.7449L80.1965 67.7972L80.1577 67.8675L80.5469 68.0821ZM80.084 72.4268L79.6475 72.5103L79.6611 72.5815L79.6966 72.6446L80.084 72.4268ZM82.461 77.5167L82.0572 77.7025L82.0595 77.7072L82.461 77.5167ZM82.5987 80.3419L82.1803 80.192L82.1799 80.1929L82.5987 80.3419ZM80.6944 82.4493L80.5037 82.0478L80.5029 82.0482L80.6944 82.4493ZM79.1045 82.8087V83.2531H79.1046L79.1045 82.8087ZM75.752 80.6915L76.153 80.4999L76.1342 80.4604L76.1079 80.4253L75.752 80.6915ZM73.4395 77.5987L73.7954 77.3326L73.4383 76.8549L73.0827 77.3337L73.4395 77.5987ZM70.9942 80.8917L70.6374 80.6267L70.6088 80.6652L70.5891 80.7089L70.9942 80.8917ZM66.17 82.4464L66.3622 82.0456L66.3608 82.045L66.17 82.4464ZM64.4122 77.504L64.814 77.6938L64.8158 77.6899L64.4122 77.504ZM66.8575 72.2442L67.2546 72.4437L67.2898 72.3738L67.2989 72.296L66.8575 72.2442ZM66.2247 67.9698L66.6027 67.7361L66.5622 67.6706L66.5021 67.6225L66.2247 67.9698ZM62.8545 64.962L63.153 64.6327L63.1418 64.6225L63.1299 64.6131L62.8545 64.962ZM62.3497 60.2598L62.6993 60.5343L62.6994 60.5341L62.3497 60.2598ZM67.1026 59.6846L66.8293 60.0352L66.889 60.0817L66.9607 60.1058L67.1026 59.6846ZM73.4346 61.7169V62.1613H73.4346L73.4346 61.7169ZM79.879 59.6075L80.1175 59.9825L80.1379 59.9695L80.1568 59.9544L79.879 59.6075ZM82.6094 61.7598L82.2583 62.0324L82.2597 62.034L82.6094 61.7598ZM81.2569 61.5948L81.5011 61.9661L81.515 61.957L81.5283 61.9468L81.2569 61.5948ZM73.4346 64.1426V64.5871H73.4346L73.4346 64.1426ZM65.7247 61.6778L65.4593 62.0343L65.475 62.046L65.4918 62.0563L65.7247 61.6778ZM65.0147 61.3946V60.9501H65.0147L65.0147 61.3946ZM64.2549 61.7598L63.9057 61.4849L63.9052 61.4855L64.2549 61.7598ZM64.42 63.1124L64.7078 62.7737L64.7013 62.7682L64.6946 62.7629L64.42 63.1124ZM67.9043 66.2393L68.1958 65.9038L68.1939 65.9021L67.9043 66.2393ZM69.0225 73.3321L69.4185 73.5339L69.4204 73.53L69.0225 73.3321ZM66.6075 78.5294L67.0096 78.7188L67.0113 78.715L66.6075 78.5294ZM67.2071 80.251L67.3989 79.8501L67.3964 79.8489L67.2071 80.251ZM68.9249 79.6485L68.5671 79.3848L68.542 79.4188L68.5238 79.4569L68.9249 79.6485ZM73.4346 73.5294L73.7916 73.2647L73.4336 72.7817L73.0768 73.2657L73.4346 73.5294ZM77.8213 79.4464L78.2162 79.2423L78.1997 79.2105L78.1784 79.1817L77.8213 79.4464ZM79.6514 80.254L79.4591 79.8533L79.4579 79.8539L79.6514 80.254ZM80.3145 79.5264L80.7341 79.6728L80.7342 79.6728L80.3145 79.5264ZM80.2618 78.5411L79.852 78.7131L79.8565 78.724L79.8617 78.7347L80.2618 78.5411ZM77.8438 73.3292L77.4462 73.5278L77.4463 73.5279L77.8438 73.3292ZM78.9571 66.2423L78.6676 65.905L78.6657 65.9067L78.9571 66.2423ZM82.3838 63.1651L82.106 62.8182L82.0955 62.8266L82.0856 62.8356L82.3838 63.1651ZM73.4317 48.5909L73.4317 48.1464H73.4317V48.5909ZM79.1612 54.3214L79.6056 54.3214V54.3214H79.1612ZM73.4317 60.0557V60.5002H73.4317L73.4317 60.0557ZM67.6993 54.3233L67.2548 54.3233V54.3233H67.6993ZM73.4317 51.0137L73.4317 50.5693H73.4317V51.0137ZM70.1241 54.3214H69.6796V54.3214L70.1241 54.3214ZM73.4317 57.6309V58.0754H73.4317L73.4317 57.6309ZM76.7364 54.3214L77.1808 54.3214V54.3214H76.7364ZM75.2051 35.919L74.941 36.2765L74.9419 36.2771L75.2051 35.919ZM71.6583 35.9161L71.9217 36.274L71.9217 36.274L71.6583 35.9161ZM49.5792 52.1631L49.3157 51.8052L49.3153 51.8055L49.5792 52.1631ZM48.836 53.3926L48.3968 53.3242L48.3961 53.3289L48.836 53.3926ZM49.1788 54.793L48.8203 55.0558L48.8212 55.0571L49.1788 54.793ZM49.7911 55.6221L49.4335 55.8862L49.4336 55.8863L49.7911 55.6221ZM52.4239 56.0225L52.6871 56.3806L52.6873 56.3805L52.4239 56.0225ZM70.2227 42.9278L70.4861 43.2858L70.4866 43.2854L70.2227 42.9278ZM73.4327 41.9356V41.4912H73.4327L73.4327 41.9356ZM76.6456 42.9258L76.909 42.5679L76.9079 42.5671L76.6456 42.9258ZM94.4415 56.0225L94.178 56.3805L94.1787 56.381L94.4415 56.0225ZM97.0743 55.6221L97.4312 55.887L97.4322 55.8856L97.0743 55.6221ZM97.6846 54.793L97.3268 54.5295L97.3267 54.5295L97.6846 54.793ZM97.2842 52.1651L97.0208 52.523L97.0221 52.524L97.2842 52.1651ZM88.5049 45.7032H88.0605V45.9279L88.2415 46.0611L88.5049 45.7032ZM83.4551 41.9835L83.1919 42.3416L83.8996 42.8618V41.9835H83.4551ZM45.2081 80.6212L45.208 81.0656C46.155 81.0657 47.1452 81.3569 47.9338 82.0404C48.7167 82.7191 49.3402 83.8183 49.5 85.5106L49.9424 85.4688L50.3849 85.427C50.2072 83.5448 49.4984 82.2203 48.516 81.3687C47.5392 80.5221 46.3309 80.1768 45.2081 80.1767L45.2081 80.6212ZM49.9424 85.4688L49.4982 85.4556L49.2384 94.2203L49.6827 94.2335L50.1269 94.2466L50.3867 85.482L49.9424 85.4688ZM49.6827 94.2335L49.2446 94.3085C49.2621 94.4103 49.3101 94.4978 49.3351 94.5408C49.3686 94.5984 49.4109 94.659 49.4588 94.7173C49.5485 94.8263 49.6918 94.9686 49.8793 95.0518L50.0596 94.6456L50.2399 94.2393C50.2401 94.2394 50.237 94.238 50.2306 94.2339C50.2243 94.2297 50.2161 94.2237 50.2064 94.2155C50.1865 94.1987 50.1653 94.1769 50.1454 94.1527C50.1253 94.1283 50.1111 94.1069 50.1035 94.0939C50.0997 94.0874 50.0998 94.0867 50.1019 94.0917C50.1031 94.0944 50.1057 94.1006 50.1088 94.11C50.1117 94.1186 50.1168 94.1354 50.1207 94.1584L49.6827 94.2335ZM50.0596 94.6456L49.8801 95.0521L53.1682 96.5043L53.3477 96.0977L53.5273 95.6912L50.2392 94.239L50.0596 94.6456ZM53.3477 96.0977L53.7015 95.8288C52.8254 94.6762 52.2631 93.6898 51.9797 92.8504C51.6979 92.0156 51.7002 91.3528 51.9133 90.8139L51.5001 90.6505L51.0868 90.487C50.7749 91.2756 50.8098 92.1639 51.1375 93.1347C51.4636 94.1008 52.0876 95.1744 52.9939 96.3667L53.3477 96.0977ZM51.5001 90.6505L51.9133 90.8139C52.3315 89.757 53.4697 89.4263 54.12 89.4151L54.1124 88.9708L54.1047 88.5264C53.3002 88.5402 51.6989 88.9397 51.0868 90.487L51.5001 90.6505ZM54.1124 88.9708L54.1123 89.4152C55.0536 89.4152 56.178 89.7913 56.8102 90.2803L57.0821 89.9288L57.354 89.5772C56.5513 88.9563 55.2309 88.5264 54.1124 88.5263L54.1124 88.9708ZM57.0821 89.9288L56.8104 90.2805L68.202 99.0793L68.4737 98.7276L68.7454 98.3759L57.3538 89.577L57.0821 89.9288ZM68.4737 98.7276L68.2016 99.079C68.8888 99.611 69.4569 100.603 69.5427 101.382L69.9844 101.333L70.4262 101.284C70.312 100.248 69.6085 99.0441 68.7458 98.3762L68.4737 98.7276ZM69.9844 101.333L69.5427 101.382L70.8396 113.049L71.2813 113L71.723 112.951L70.4261 101.284L69.9844 101.333ZM71.2813 113V112.556H54.3018V113V113.445H71.2813V113ZM54.3018 113L54.619 112.689L41.8777 99.7112L41.5606 100.023L41.2435 100.334L53.9847 113.311L54.3018 113ZM41.5606 100.023L41.8793 99.7127C41.2657 99.0816 40.8877 98.0091 40.9769 97.2074L40.5352 97.1583L40.0935 97.1091C39.9729 98.1923 40.4557 99.5236 41.2419 100.332L41.5606 100.023ZM40.5352 97.1583L40.9766 97.2102L42.6446 83.0403L42.2032 82.9883L41.7618 82.9364L40.0938 97.1063L40.5352 97.1583ZM42.2032 82.9883L42.6447 83.0392C42.7467 82.1527 43.5872 81.2899 44.6472 81.1038L44.5704 80.6661L44.4935 80.2283C43.1039 80.4722 41.915 81.6045 41.7616 82.9375L42.2032 82.9883ZM44.5704 80.6661L44.6122 81.1086C44.6577 81.1043 44.8524 81.0656 45.2081 81.0656V80.6212V80.1767C44.7971 80.1767 44.5032 80.226 44.5286 80.2236L44.5704 80.6661ZM101.662 80.6192V81.0636C101.839 81.0636 101.982 81.0739 102.079 81.0838C102.128 81.0888 102.166 81.0937 102.19 81.0972C102.203 81.0989 102.212 81.1004 102.219 81.1014C102.222 81.1018 102.226 81.1026 102.229 81.103C102.231 81.1032 102.234 81.1038 102.239 81.1044C102.24 81.1046 102.245 81.1052 102.251 81.1058C102.253 81.1061 102.258 81.1067 102.264 81.1072C102.269 81.1075 102.282 81.1086 102.3 81.1086V80.6641V80.2197C102.317 80.2197 102.331 80.2207 102.335 80.2211C102.341 80.2216 102.346 80.2221 102.348 80.2223C102.354 80.2229 102.358 80.2235 102.359 80.2236C102.362 80.224 102.364 80.2243 102.363 80.2242C102.361 80.224 102.36 80.2238 102.355 80.223C102.346 80.2216 102.332 80.2195 102.315 80.2171C102.28 80.2121 102.231 80.2058 102.169 80.1995C102.046 80.187 101.873 80.1748 101.662 80.1748V80.6192ZM102.3 80.6641L102.223 81.1019C103.283 81.2879 104.124 82.1529 104.226 83.0372L104.667 82.9864L105.109 82.9356C104.955 81.6051 103.767 80.4704 102.377 80.2264L102.3 80.6641ZM104.667 82.9864L104.226 83.0383L105.891 97.2101L106.332 97.1583L106.773 97.1064L105.108 82.9345L104.667 82.9864ZM106.332 97.1583L105.89 97.2075C105.98 98.0096 105.601 99.0851 104.989 99.7131L105.307 100.023L105.625 100.334C106.412 99.527 106.894 98.1918 106.774 97.1091L106.332 97.1583ZM105.307 100.023L104.99 99.7121L92.2483 112.689L92.5655 113L92.8826 113.311L105.624 100.335L105.307 100.023ZM92.5655 113V112.556H75.586V113V113.445H92.5655V113ZM75.586 113L76.0277 113.049L77.3256 101.382L76.8838 101.333L76.4421 101.284L75.1443 112.951L75.586 113ZM76.8838 101.333L77.3256 101.382C77.4114 100.603 77.9786 99.6112 78.6664 99.0765L78.3936 98.7256L78.1208 98.3748C77.2587 99.045 76.5563 100.248 76.4421 101.284L76.8838 101.333ZM78.3936 98.7256L78.6653 99.0774L90.0569 90.2776L89.7852 89.9258L89.5135 89.5741L78.1219 98.3739L78.3936 98.7256ZM89.7852 89.9258L90.0565 90.2779C90.6915 89.7884 91.8162 89.4133 92.755 89.4133L92.7549 88.9688L92.7549 88.5244C91.6389 88.5244 90.3187 88.9534 89.5139 89.5738L89.7852 89.9258ZM92.7549 88.9688V89.4133H92.7598V88.9688V88.5244H92.7549V88.9688ZM92.7598 88.9688L92.7522 89.4132C93.4023 89.4244 94.5388 89.7546 94.9569 90.8119L95.3702 90.6485L95.7835 90.4851C95.1716 88.9376 93.5723 88.5383 92.7675 88.5244L92.7598 88.9688ZM95.3702 90.6485L94.9568 90.8117C95.1701 91.3521 95.1722 92.015 94.8905 92.8493C94.6072 93.6884 94.0448 94.6742 93.1687 95.8268L93.5225 96.0958L93.8763 96.3647C94.7826 95.1725 95.4065 94.0996 95.7327 93.1337C96.0604 92.1631 96.0952 91.2749 95.7836 90.4853L95.3702 90.6485ZM93.5225 96.0958L93.7021 96.5023L96.9892 95.0502L96.8096 94.6436L96.63 94.2371L93.3429 95.6892L93.5225 96.0958ZM96.8096 94.6436L96.9897 95.05C97.1784 94.9663 97.3218 94.8228 97.4109 94.7139C97.4587 94.6556 97.5004 94.5955 97.5336 94.5388C97.559 94.4954 97.6044 94.4126 97.6234 94.3177L97.1875 94.2305L96.7517 94.1434C96.7559 94.1226 96.7608 94.1077 96.7633 94.1002C96.7662 94.0921 96.7684 94.0869 96.7693 94.0849C96.771 94.0813 96.7704 94.083 96.7663 94.0901C96.758 94.1042 96.7433 94.1262 96.7231 94.1508C96.7031 94.1754 96.6819 94.1972 96.6621 94.214C96.6525 94.2222 96.6445 94.2281 96.6383 94.2321C96.6321 94.2362 96.6291 94.2375 96.6296 94.2373L96.8096 94.6436ZM97.1875 94.2305L97.6318 94.2174L97.372 85.4527L96.9278 85.4659L96.4835 85.479L96.7433 94.2437L97.1875 94.2305ZM96.9278 85.4659L97.3703 85.5077C97.5301 83.8169 98.154 82.7178 98.9374 82.0389C99.7265 81.3552 100.717 81.0637 101.662 81.0636L101.662 80.6192L101.662 80.1748C100.54 80.1748 99.3322 80.5206 98.3553 81.3672C97.3727 82.2187 96.6631 83.5429 96.4853 85.4241L96.9278 85.4659ZM45.2051 83.046V82.6015C45.0555 82.6015 44.9404 82.6134 44.8805 82.6243L44.96 83.0616L45.0395 83.4989C45.0335 83.5 45.0463 83.4976 45.0791 83.495C45.1094 83.4926 45.1521 83.4904 45.2051 83.4904V83.046ZM44.96 83.0616L44.8803 82.6244C44.7048 82.6563 44.5582 82.7435 44.4606 82.8175C44.4086 82.857 44.3604 82.9004 44.319 82.945C44.2833 82.9835 44.2312 83.0457 44.1946 83.1244L44.5977 83.3116L45.0008 83.4987C44.9943 83.5127 44.9883 83.5231 44.9843 83.5298C44.9801 83.5366 44.9767 83.5415 44.9746 83.5444C44.9706 83.5498 44.9689 83.5514 44.9707 83.5495C44.9745 83.5454 44.9839 83.5363 44.9978 83.5257C45.0116 83.5153 45.0249 83.5071 45.0355 83.5018C45.0406 83.4993 45.0438 83.4981 45.0451 83.4977C45.0464 83.4972 45.0446 83.4979 45.0397 83.4988L44.96 83.0616ZM44.5977 83.3116L44.1563 83.2599L42.501 97.3839L42.9424 97.4356L43.3839 97.4873L45.0391 83.3633L44.5977 83.3116ZM42.9424 97.4356L42.5002 97.3916C42.4892 97.5023 42.506 97.618 42.5242 97.7068C42.5444 97.805 42.5749 97.9112 42.613 98.0157C42.6844 98.2118 42.8033 98.4601 42.9769 98.6358L43.293 98.3233L43.6091 98.0109C43.5678 97.9691 43.5027 97.8611 43.4482 97.7115C43.4233 97.6431 43.4054 97.5791 43.395 97.5284C43.3827 97.4683 43.387 97.4565 43.3847 97.4796L42.9424 97.4356ZM43.293 98.3233L42.9759 98.6347L55.0022 110.884L55.3194 110.572L55.6365 110.261L43.6102 98.0119L43.293 98.3233ZM55.3194 110.572V111.017H68.5743V110.572V110.128H55.3194V110.572ZM68.5743 110.572L69.016 110.523L68.0209 101.552L67.5792 101.601L67.1374 101.65L68.1325 110.621L68.5743 110.572ZM67.5792 101.601L68.0213 101.555C67.9999 101.347 67.8843 101.096 67.7693 100.9C67.6479 100.693 67.4737 100.457 67.2682 100.296L66.9942 100.646L66.7202 100.996C66.8021 101.06 66.9092 101.191 67.0027 101.35C67.0471 101.426 67.0826 101.498 67.107 101.558C67.134 101.624 67.1376 101.652 67.137 101.646L67.5792 101.601ZM66.9942 100.646L67.266 100.294L55.8792 91.4941L55.6075 91.8458L55.3357 92.1974L66.7224 100.997L66.9942 100.646ZM55.6075 91.8458L55.8773 91.4926C55.6862 91.3466 55.3895 91.2153 55.1046 91.1223C54.8144 91.0275 54.472 90.9511 54.1719 90.9511V91.3956V91.84C54.3419 91.84 54.5847 91.8875 54.8285 91.9672C55.0777 92.0486 55.2638 92.1425 55.3376 92.1989L55.6075 91.8458ZM54.1719 91.3956L54.1515 90.9516C54.0163 90.9578 53.8752 90.9911 53.7632 91.0309C53.7065 91.051 53.6428 91.0779 53.5835 91.1129C53.5539 91.1303 53.5164 91.155 53.4791 91.1883C53.4461 91.2178 53.3864 91.2775 53.3472 91.3706L53.7569 91.543L54.1665 91.7154C54.149 91.757 54.128 91.7877 54.1123 91.8075C54.0963 91.8277 54.0815 91.8422 54.0713 91.8513C54.0518 91.8687 54.0373 91.8772 54.0349 91.8786C54.03 91.8815 54.0376 91.8767 54.0609 91.8685C54.082 91.8609 54.1075 91.8536 54.1335 91.8481C54.1601 91.8424 54.1805 91.8401 54.1923 91.8396L54.1719 91.3956ZM53.7569 91.543L53.3442 91.378C53.2831 91.5308 53.2445 91.8906 53.4966 92.5421C53.7521 93.2026 54.3224 94.2084 55.5631 95.695L55.9043 95.4102L56.2456 95.1254C55.0392 93.68 54.5333 92.7584 54.3256 92.2214C54.1144 91.6756 54.2257 91.5678 54.1695 91.7081L53.7569 91.543ZM55.9043 95.4102L55.5624 95.6941C55.5618 95.6934 55.5658 95.6982 55.5741 95.7112C55.5822 95.7238 55.5925 95.7412 55.6048 95.7641C55.6297 95.8102 55.659 95.8711 55.6921 95.9472C55.7585 96.0995 55.8334 96.2961 55.9136 96.5254C56.0739 96.9834 56.2479 97.549 56.4095 98.1039C56.7324 99.2123 56.9999 100.256 57.0012 100.261L57.4317 100.15L57.8622 100.04C57.8602 100.032 57.5899 98.9777 57.2629 97.8552C57.0996 97.2947 56.9206 96.7117 56.7526 96.2318C56.6688 95.9923 56.5857 95.7727 56.507 95.592C56.4341 95.4248 56.3469 95.2475 56.2463 95.1263L55.9043 95.4102ZM57.4317 100.15L57.5944 99.7369L49.2399 96.4498L49.0772 96.8633L48.9145 97.2769L57.269 100.564L57.4317 100.15ZM49.0772 96.8633L49.2567 96.4568C48.3326 96.0486 47.6749 95.0368 47.6992 94.1727L47.2549 94.1602L46.8107 94.1477C46.775 95.4135 47.682 96.733 48.8976 97.2699L49.0772 96.8633ZM47.2549 94.1602L47.6992 94.1738L47.9619 85.5576L47.5176 85.544L47.0734 85.5305L46.8107 94.1467L47.2549 94.1602ZM47.5176 85.544L47.9598 85.4992C47.8729 84.641 47.6163 83.9125 47.1436 83.3938C46.6602 82.8632 45.9957 82.6015 45.2051 82.6015L45.2051 83.046L45.2051 83.4904C45.787 83.4904 46.1975 83.6753 46.4866 83.9925C46.7864 84.3216 46.9998 84.8421 47.0754 85.5888L47.5176 85.544ZM101.665 83.046V82.6015C100.875 82.6015 100.21 82.8632 99.7258 83.3937C99.2526 83.9125 98.9959 84.6412 98.9103 85.4999L99.3526 85.544L99.7948 85.5881C99.8692 84.8419 100.083 84.3216 100.383 83.9926C100.672 83.6753 101.083 83.4904 101.665 83.4904V83.046ZM99.3526 85.544L98.9084 85.5576L99.171 94.1747L99.6153 94.1612L100.06 94.1477L99.7968 85.5305L99.3526 85.544ZM99.6153 94.1612L99.171 94.1726C99.1932 95.0378 98.5361 96.0489 97.6125 96.4568L97.792 96.8633L97.9716 97.2699C99.1876 96.7329 100.092 95.4143 100.06 94.1498L99.6153 94.1612ZM97.792 96.8633L97.6293 96.4498L89.2748 99.7369L89.4375 100.15L89.6003 100.564L97.9548 97.2769L97.792 96.8633ZM89.4375 100.15C89.8681 100.261 89.8681 100.261 89.8681 100.261C89.8681 100.261 89.8682 100.26 89.8682 100.26C89.8682 100.26 89.8682 100.26 89.8683 100.26C89.8684 100.259 89.8686 100.259 89.8689 100.258C89.8694 100.256 89.8701 100.253 89.8711 100.249C89.8731 100.241 89.8761 100.23 89.88 100.214C89.8879 100.184 89.8995 100.139 89.9145 100.082C89.9445 99.9666 89.9879 99.8016 90.0415 99.6019C90.1486 99.2022 90.296 98.6643 90.4573 98.1101C90.6189 97.5547 90.793 96.9882 90.9537 96.5293C91.0342 96.2994 91.1093 96.1023 91.1759 95.9496C91.2092 95.8733 91.2386 95.8123 91.2636 95.766C91.2761 95.743 91.2864 95.7256 91.2945 95.7129C91.303 95.6998 91.307 95.6949 91.3065 95.6955L90.9649 95.4112L90.6233 95.1269C90.5221 95.2484 90.4345 95.4262 90.3612 95.594C90.2821 95.7753 90.1988 95.9955 90.1147 96.2355C89.9463 96.7165 89.7671 97.3006 89.6038 97.8617C89.4401 98.4239 89.291 98.9683 89.1829 99.3718C89.1288 99.5736 89.0849 99.7405 89.0545 99.857C89.0393 99.9152 89.0274 99.9609 89.0194 99.9921C89.0153 100.008 89.0123 100.02 89.0102 100.028C89.0091 100.032 89.0083 100.035 89.0078 100.037C89.0075 100.038 89.0073 100.039 89.0072 100.039C89.0071 100.04 89.0071 100.04 89.007 100.04C89.007 100.04 89.007 100.04 89.007 100.04C89.007 100.04 89.007 100.04 89.4375 100.15ZM90.9649 95.4112L91.3063 95.6958C92.5458 94.2091 93.1161 93.2031 93.3718 92.5426C93.6239 91.8916 93.5864 91.5313 93.525 91.378L93.1124 91.543L92.6997 91.7081C92.6434 91.5672 92.7546 91.6749 92.5429 92.2217C92.3348 92.7591 91.8288 93.681 90.6235 95.1266L90.9649 95.4112ZM93.1124 91.543L93.5229 91.3727C93.4847 91.2808 93.4266 91.2209 93.3924 91.1899C93.3547 91.1556 93.3166 91.1303 93.2864 91.1124C93.226 91.0766 93.1614 91.0495 93.1043 91.0294C92.9915 90.9897 92.851 90.9577 92.7175 90.9516L92.6973 91.3956L92.6771 91.8396C92.6898 91.8401 92.7106 91.8425 92.7373 91.8481C92.7633 91.8535 92.7886 91.8607 92.8093 91.868C92.8322 91.876 92.8389 91.8805 92.8331 91.877C92.8301 91.8753 92.8151 91.8663 92.7952 91.8483C92.7849 91.8389 92.7701 91.8242 92.7543 91.8039C92.7387 91.7838 92.7186 91.7537 92.7019 91.7134L93.1124 91.543ZM92.6973 91.3956L92.6972 90.9511C92.3972 90.9512 92.055 91.0275 91.765 91.1224C91.4804 91.2155 91.184 91.3466 90.9929 91.4926L91.2627 91.8458L91.5326 92.1989C91.6065 92.1425 91.7924 92.0486 92.0413 91.9672C92.2848 91.8876 92.5275 91.8401 92.6974 91.84L92.6973 91.3956ZM91.2627 91.8458L90.991 91.4941L79.6043 100.294L79.876 100.646L80.1478 100.997L91.5345 92.1974L91.2627 91.8458ZM79.876 100.646L79.6021 100.296C79.3961 100.457 79.2224 100.694 79.1015 100.901C78.9864 101.097 78.8728 101.346 78.8495 101.55L79.2911 101.601L79.7327 101.651C79.7322 101.655 79.7369 101.625 79.7641 101.558C79.7888 101.498 79.8244 101.425 79.8687 101.349C79.9622 101.19 80.0685 101.059 80.1499 100.996L79.876 100.646ZM79.2911 101.601L78.8493 101.552L77.8542 110.523L78.2959 110.572L78.7377 110.621L79.7328 101.65L79.2911 101.601ZM78.2959 110.572V111.017H91.5499V110.572V110.128H78.2959V110.572ZM91.5499 110.572L91.867 110.884L103.894 98.6347L103.577 98.3233L103.26 98.0119L91.2327 110.261L91.5499 110.572ZM103.577 98.3233L103.891 98.6376C104.067 98.4624 104.186 98.2129 104.258 98.0165C104.296 97.9116 104.327 97.8047 104.347 97.7057C104.364 97.6166 104.381 97.4984 104.368 97.3851L103.927 97.4356L103.485 97.4861C103.482 97.4603 103.487 97.4699 103.475 97.5301C103.465 97.5803 103.447 97.6442 103.422 97.7125C103.368 97.8623 103.303 97.9692 103.263 98.009L103.577 98.3233ZM103.927 97.4356L104.368 97.3839L102.714 83.2599L102.273 83.3116L101.831 83.3633L103.485 97.4873L103.927 97.4356ZM102.273 83.3116L102.678 83.1298C102.641 83.0469 102.587 82.9824 102.55 82.9432C102.508 82.8978 102.459 82.8543 102.407 82.8152C102.309 82.7417 102.163 82.6566 101.991 82.6246L101.91 83.0616L101.829 83.4985C101.824 83.4977 101.823 83.497 101.824 83.4975C101.826 83.4981 101.829 83.4994 101.835 83.502C101.846 83.5075 101.859 83.5159 101.873 83.5263C101.888 83.5369 101.897 83.5457 101.9 83.5492C101.901 83.5508 101.899 83.5487 101.895 83.5425C101.892 83.5392 101.889 83.5338 101.884 83.5264C101.88 83.5192 101.874 83.5081 101.867 83.4934L102.273 83.3116ZM101.91 83.0616L101.99 82.6243C101.93 82.6134 101.814 82.6015 101.665 82.6015L101.665 83.046L101.665 83.4904C101.718 83.4904 101.761 83.4926 101.791 83.495C101.824 83.4976 101.837 83.5 101.831 83.4989L101.91 83.0616ZM70.2208 33.9639L70.4853 34.3211C71.2604 33.7471 72.3315 33.4447 73.4289 33.4447C74.5262 33.4447 75.5996 33.747 76.3788 34.3216L76.6426 33.9639L76.9064 33.6062C75.9432 32.8959 74.6732 32.5558 73.4289 32.5558C72.1846 32.5558 70.9161 32.8959 69.9562 33.6068L70.2208 33.9639ZM76.6426 33.9639L76.3792 34.3219L80.8167 37.5866L81.0801 37.2286L81.3435 36.8706L76.906 33.6059L76.6426 33.9639ZM81.0801 37.2286L81.5174 37.3081C81.7571 35.9907 82.9134 34.9906 84.297 34.9904L84.2969 34.546L84.2969 34.1015C82.4759 34.1017 80.9581 35.4168 80.6429 37.149L81.0801 37.2286ZM84.2969 34.546V34.9904H87.6524V34.546V34.1015H84.2969V34.546ZM87.6524 34.546L87.6524 34.9904C89.2146 34.9905 90.4853 36.2599 90.4853 37.8214H90.9297H91.3742C91.3742 35.7682 89.7048 34.1017 87.6524 34.1015L87.6524 34.546ZM90.9297 37.8214H90.4853V44.4756H90.9297H91.3742V37.8214H90.9297ZM90.9297 44.4756L90.6662 44.8335L98.4552 50.5708L98.7188 50.213L98.9824 49.8551L91.1933 44.1178L90.9297 44.4756ZM98.7188 50.213L98.4561 50.5714C100.167 51.8255 100.539 54.2474 99.2783 55.9678L99.6368 56.2305L99.9953 56.4932C101.545 54.3788 101.09 51.4002 98.9815 49.8545L98.7188 50.213ZM99.6368 56.2305L99.2799 55.9657L98.6646 56.7948L99.0215 57.0596L99.3784 57.3245L99.9937 56.4954L99.6368 56.2305ZM99.0215 57.0596L98.6638 56.796C98.0658 57.6074 97.1528 58.1324 96.1496 58.2905L96.2188 58.7296L96.288 59.1686C97.5047 58.9768 98.6324 58.3368 99.3793 57.3233L99.0215 57.0596ZM96.2188 58.7296H95.7744V79.7442H96.2188H96.6632V58.7296H96.2188ZM96.2188 79.7442L95.7744 79.7442C95.7742 83.6465 92.4833 86.8466 88.4043 86.8466V87.2911V87.7355C92.9448 87.7355 96.6631 84.1663 96.6632 79.7442L96.2188 79.7442ZM88.4043 87.2911V86.8466H58.4532V87.2911V87.7355H88.4043V87.2911ZM58.4532 87.2911L58.4532 86.8466C54.3745 86.8465 51.0833 83.6439 51.0832 79.7442L50.6387 79.7442L50.1943 79.7442C50.1944 84.1636 53.9128 87.7353 58.4532 87.7355L58.4532 87.2911ZM50.6387 79.7442H51.0832V58.71H50.6387H50.1943V79.7442H50.6387ZM50.6387 58.71L50.7079 58.271C49.7141 58.1144 48.7896 57.6031 48.1947 56.796L47.837 57.0596L47.4792 57.3233C48.2292 58.341 49.3735 58.9606 50.5695 59.1491L50.6387 58.71ZM47.837 57.0596L48.1943 56.7953L47.581 55.9662L47.2237 56.2305L46.8664 56.4948L47.4796 57.3239L47.837 57.0596ZM47.2237 56.2305L47.5822 55.9679C46.9743 55.1379 46.7236 54.1208 46.8808 53.0947L46.4415 53.0274L46.0021 52.9601C45.8093 54.2189 46.1181 55.4732 46.8651 56.4932L47.2237 56.2305ZM46.4415 53.0274L46.8809 53.0939C47.0358 52.0706 47.5798 51.1733 48.4061 50.5687L48.1436 50.21L47.8811 49.8514C46.8628 50.5965 46.1922 51.7046 46.002 52.9609L46.4415 53.0274ZM48.1436 50.21L48.407 50.568L70.4842 34.3219L70.2208 33.9639L69.9573 33.606L47.8802 49.8521L48.1436 50.21ZM75.2051 44.878L75.4678 44.5194C74.9186 44.1172 74.1539 43.9406 73.4327 43.9406C72.7113 43.9406 71.9463 44.1173 71.3961 44.5191L71.6583 44.878L71.9204 45.2369C72.2702 44.9814 72.8299 44.8295 73.4327 44.8295C74.0355 44.8295 74.5942 44.9814 74.9425 45.2365L75.2051 44.878ZM71.6583 44.878L71.3949 44.52L53.5931 57.6167L53.8565 57.9747L54.1199 58.3327L71.9216 45.236L71.6583 44.878ZM53.8565 57.9747L53.5887 57.62C53.3801 57.7775 53.1464 57.9035 52.8932 58.0107L53.0665 58.42L53.2398 58.8292C53.5414 58.7015 53.843 58.5418 54.1243 58.3294L53.8565 57.9747ZM53.0665 58.42H52.622V79.7442H53.0665H53.5109V58.42H53.0665ZM53.0665 79.7442L52.622 79.7442C52.6222 82.8329 55.2597 85.3076 58.4531 85.3078L58.4532 84.8633L58.4532 84.4189C55.7074 84.4187 53.511 82.2998 53.5109 79.7442L53.0665 79.7442ZM58.4532 84.8633V85.3078H88.4043V84.8633V84.4189H58.4532V84.8633ZM88.4043 84.8633V85.3078C91.6029 85.3078 94.2383 82.833 94.2384 79.7442L93.794 79.7442L93.3496 79.7442C93.3494 82.2999 91.1553 84.4189 88.4043 84.4189V84.8633ZM93.794 79.7442H94.2384V58.3848H93.794H93.3496V79.7442H93.794ZM93.794 58.3848L93.9807 57.9815C93.6745 57.8398 93.4647 57.7617 93.2671 57.6165L93.004 57.9747L92.7408 58.3328C93.0329 58.5475 93.3738 58.6801 93.6073 58.7882L93.794 58.3848ZM93.004 57.9747L93.2674 57.6167L75.4685 44.52L75.2051 44.878L74.9417 45.236L92.7406 58.3327L93.004 57.9747ZM81.8487 58.9678V59.4123C82.7599 59.4123 83.6042 59.8196 84.175 60.5406L84.5235 60.2647L84.8719 59.9888C84.1329 59.0553 83.0321 58.5234 81.8487 58.5234V58.9678ZM84.5235 60.2647L84.1741 60.5394C85.1717 61.8081 84.952 63.6576 83.6799 64.6665L83.9561 65.0147L84.2323 65.3629C85.8851 64.052 86.1751 61.6461 84.8729 59.99L84.5235 60.2647ZM83.9561 65.0147L83.6404 64.7019C83.6456 64.6966 83.4792 64.8482 83.1891 65.1111C82.9098 65.3642 82.5342 65.7042 82.1428 66.0575C81.357 66.7669 80.5162 67.5227 80.2574 67.7449L80.5469 68.0821L80.8364 68.4193C81.3655 67.9651 84.2342 65.3655 84.2718 65.3276L83.9561 65.0147ZM80.5469 68.0821L80.1577 67.8675C80.0938 67.9835 80.0469 68.1347 80.0103 68.276C79.971 68.4274 79.9338 68.607 79.8992 68.8021C79.8298 69.1929 79.767 69.6662 79.7178 70.1411C79.6685 70.6164 79.6322 71.0997 79.6166 71.5111C79.6017 71.9061 79.6035 72.2806 79.6475 72.5103L80.084 72.4268L80.5206 72.3433C80.4983 72.2268 80.4896 71.9491 80.5049 71.5447C80.5195 71.1566 80.5542 70.6931 80.6019 70.2328C80.6497 69.7721 80.7098 69.3211 80.7744 68.9575C80.8067 68.7753 80.8393 68.6202 80.8707 68.4991C80.8864 68.4386 80.9009 68.3902 80.9137 68.3532C80.92 68.3349 80.9254 68.3209 80.9297 68.3107C80.9342 68.3002 80.9365 68.2961 80.9362 68.2966L80.5469 68.0821ZM80.084 72.4268L79.6966 72.6446C79.7814 72.7954 80.3609 74.035 80.9368 75.2769C81.5052 76.5028 82.0512 77.6894 82.0573 77.7025L82.461 77.5167L82.8647 77.3308C82.8587 77.3177 82.3122 76.1301 81.7432 74.903C81.1816 73.692 80.5787 72.3998 80.4715 72.2091L80.084 72.4268ZM82.461 77.5167L82.0595 77.7072C82.4288 78.4855 82.4754 79.3683 82.1803 80.192L82.5987 80.3419L83.0171 80.4918C83.3919 79.4455 83.3331 78.3177 82.8625 77.3261L82.461 77.5167ZM82.5987 80.3419L82.1799 80.1929C81.887 81.0162 81.2922 81.6734 80.5037 82.0478L80.6944 82.4493L80.885 82.8508C81.8861 82.3754 82.6453 81.5369 83.0174 80.4908L82.5987 80.3419ZM80.6944 82.4493L80.5029 82.0482C80.0655 82.257 79.5933 82.3642 79.1045 82.3642L79.1045 82.8087L79.1046 83.2531C79.7255 83.253 80.3286 83.1164 80.8859 82.8504L80.6944 82.4493ZM79.1045 82.8087V82.3642C77.8515 82.3642 76.6945 81.6333 76.153 80.4999L75.752 80.6915L75.351 80.883C76.0395 82.3244 77.5078 83.2531 79.1045 83.2531V82.8087ZM75.752 80.6915L76.1079 80.4253L73.7954 77.3326L73.4395 77.5987L73.0836 77.8648L75.3961 80.9576L75.752 80.6915ZM73.4395 77.5987L73.0827 77.3337L70.6374 80.6267L70.9942 80.8917L71.351 81.1566L73.7963 77.8637L73.4395 77.5987ZM70.9942 80.8917L70.5891 80.7089C70.3117 81.3236 69.6685 81.8582 68.8566 82.1372C68.0502 82.4143 67.1375 82.4176 66.3622 82.0456L66.17 82.4464L65.9777 82.8471C66.9997 83.3373 68.1591 83.3168 69.1455 82.9779C70.1263 82.6408 70.9966 81.9669 71.3993 81.0745L70.9942 80.8917ZM66.17 82.4464L66.3608 82.045C64.7426 81.2754 64.0435 79.325 64.814 77.6938L64.4122 77.504L64.0103 77.3142C63.0309 79.3877 63.9176 81.8674 65.9791 82.8477L66.17 82.4464ZM64.4122 77.504L64.8158 77.6899C64.8262 77.6674 66.9995 72.9515 67.2546 72.4437L66.8575 72.2442L66.4603 72.0447C66.1963 72.5702 64.0123 77.3098 64.0085 77.318L64.4122 77.504ZM66.8575 72.2442L67.2989 72.296C67.3196 72.1196 67.3072 71.7848 67.2813 71.4174C67.2543 71.0326 67.2085 70.5643 67.1488 70.0932C67.0891 69.6229 67.0147 69.1431 66.9293 68.7371C66.8866 68.5343 66.8401 68.3444 66.7896 68.1805C66.7412 68.0235 66.6811 67.8629 66.6027 67.7361L66.2247 67.9698L65.8466 68.2034C65.8645 68.2323 65.8982 68.3061 65.9401 68.4422C65.9798 68.5713 66.02 68.7329 66.0594 68.9201C66.1381 69.2942 66.209 69.7484 66.267 70.2051C66.3248 70.6609 66.3688 71.1126 66.3946 71.4798C66.4217 71.8644 66.4253 72.1136 66.4161 72.1924L66.8575 72.2442ZM66.2247 67.9698L66.5021 67.6225C66.2977 67.4593 65.469 66.7201 64.6736 66.0051C64.2799 65.6511 63.8997 65.308 63.618 65.0534C63.4771 64.926 63.3608 64.8208 63.2798 64.7475C63.2393 64.7108 63.2076 64.6821 63.186 64.6625C63.1752 64.6528 63.167 64.6453 63.1614 64.6403C63.1586 64.6378 63.1565 64.6359 63.1551 64.6346C63.1544 64.6339 63.1539 64.6335 63.1535 64.6331C63.1534 64.633 63.1532 64.6329 63.1531 64.6328C63.1531 64.6327 63.1531 64.6327 63.153 64.6327C63.153 64.6327 63.153 64.6327 62.8545 64.962C62.5561 65.2913 62.5561 65.2913 62.5561 65.2913C62.5561 65.2913 62.5562 65.2914 62.5562 65.2914C62.5563 65.2915 62.5564 65.2916 62.5566 65.2918C62.557 65.2921 62.5575 65.2926 62.5582 65.2932C62.5596 65.2945 62.5618 65.2964 62.5645 65.299C62.5701 65.304 62.5784 65.3115 62.5892 65.3213C62.6109 65.3409 62.6426 65.3697 62.6832 65.4065C62.7644 65.4799 62.8809 65.5853 63.0219 65.7128C63.3041 65.9678 63.6849 66.3115 64.0794 66.6661C64.8603 67.3681 65.7167 68.1328 65.9473 68.317L66.2247 67.9698ZM62.8545 64.962L63.1299 64.6131C61.9277 63.664 61.6967 61.8115 62.6993 60.5343L62.3497 60.2598L62.0001 59.9854C60.703 61.6378 60.9821 64.05 62.5791 65.3108L62.8545 64.962ZM62.3497 60.2598L62.6994 60.5341C63.6548 59.3155 65.604 59.08 66.8293 60.0352L67.1026 59.6846L67.3758 59.3341C65.7663 58.0794 63.2594 58.3793 61.9999 59.9856L62.3497 60.2598ZM67.1026 59.6846L66.9607 60.1058C66.9426 60.0997 66.9289 60.0937 66.9244 60.0918C66.9181 60.089 66.9133 60.0867 66.9107 60.0855C66.9056 60.083 66.9019 60.0811 66.9012 60.0807C66.8994 60.0797 66.8993 60.0797 66.9024 60.0814C66.9082 60.0845 66.9174 60.0897 66.9317 60.0976C66.9592 60.113 67.0002 60.136 67.0526 60.1649C67.1577 60.2229 67.3085 60.3048 67.4974 60.4025C67.8748 60.5979 68.405 60.8571 69.027 61.1161C70.2603 61.6296 71.8985 62.1613 73.4346 62.1613V61.7169V61.2724C72.0756 61.2724 70.5677 60.7947 69.3687 60.2955C68.7746 60.0481 68.2672 59.8001 67.906 59.6131C67.7255 59.5197 67.5818 59.4417 67.4821 59.3867C67.4322 59.3591 67.3933 59.3374 67.3653 59.3217C67.3518 59.3142 67.3393 59.3072 67.3297 59.3019C67.3251 59.2994 67.3189 59.296 67.3126 59.2927C67.3096 59.2912 67.3042 59.2884 67.2975 59.2852C67.2973 59.2851 67.2742 59.2734 67.2444 59.2634L67.1026 59.6846ZM73.4346 61.7169L73.4346 62.1613C74.9942 62.1612 76.6609 61.6127 77.9167 61.0814C79.1793 60.5471 80.0773 60.008 80.1175 59.9825L79.879 59.6075L79.6404 59.2325C79.6439 59.2303 79.4311 59.3592 79.0602 59.5553C78.6923 59.7497 78.1753 60.0067 77.5703 60.2627C76.3492 60.7794 74.8145 61.2724 73.4346 61.2724L73.4346 61.7169ZM79.879 59.6075L80.1568 59.9544C80.5467 59.642 81.1857 59.4123 81.8487 59.4123L81.8487 58.9678L81.8486 58.5234C81.007 58.5235 80.166 58.8081 79.6011 59.2606L79.879 59.6075ZM82.6094 61.7598L82.9605 61.4873C82.7997 61.2801 82.5474 61.0228 82.1842 60.9271C81.7928 60.8239 81.3846 60.9351 80.9855 61.2428L81.2569 61.5948L81.5283 61.9468C81.774 61.7573 81.9034 61.7723 81.9577 61.7866C82.0402 61.8083 82.1417 61.8821 82.2583 62.0324L82.6094 61.7598ZM81.2569 61.5948L81.0127 61.2235C80.8959 61.3002 79.872 61.924 78.4312 62.5271C76.9863 63.132 75.1636 63.6981 73.4346 63.6982L73.4346 64.1426L73.4346 64.5871C75.3354 64.587 77.2851 63.9705 78.7745 63.3471C80.268 62.7219 81.3403 62.0718 81.5011 61.9661L81.2569 61.5948ZM73.4346 64.1426V63.6982C71.7046 63.6982 69.8815 63.1323 68.4502 62.5378C67.0253 61.9459 66.0271 61.342 65.9575 61.2993L65.7247 61.6778L65.4918 62.0563C65.5869 62.1149 66.628 62.7434 68.1092 63.3587C69.5838 63.9712 71.5334 64.5871 73.4346 64.5871V64.1426ZM65.7247 61.6778L65.99 61.3213C65.5853 61.02 65.2682 60.9501 65.0147 60.9501V61.3946V61.839C65.0511 61.839 65.0958 61.8426 65.1587 61.864C65.2246 61.8865 65.3234 61.9332 65.4593 62.0343L65.7247 61.6778ZM65.0147 61.3946L65.0147 60.9501C64.582 60.9502 64.1771 61.1402 63.9057 61.4849L64.2549 61.7598L64.6041 62.0348C64.7027 61.9096 64.8475 61.8391 65.0147 61.839L65.0147 61.3946ZM64.2549 61.7598L63.9052 61.4855C63.4259 62.0966 63.5331 62.9808 64.1454 63.4618L64.42 63.1124L64.6946 62.7629C64.4669 62.584 64.429 62.258 64.6046 62.0341L64.2549 61.7598ZM64.42 63.1124L64.1322 63.451C64.1307 63.4498 64.1399 63.4579 64.1679 63.483C64.1926 63.5051 64.2271 63.5362 64.2703 63.5751C64.3567 63.6529 64.4769 63.7614 64.6212 63.8916C64.9096 64.1519 65.2934 64.4984 65.6916 64.8572C66.4851 65.5723 67.3444 66.3444 67.6148 66.5765L67.9043 66.2393L68.1939 65.9021C67.9339 65.6789 67.0855 64.9168 66.2867 64.1969C65.4976 63.4858 64.7489 62.8086 64.7078 62.7737L64.42 63.1124ZM67.9043 66.2393L67.6129 66.5748C67.8231 66.7575 68.0484 67.1703 68.2453 67.7971C68.4355 68.4027 68.5776 69.1361 68.6682 69.8771C68.7587 70.6171 68.7961 71.3508 68.7821 71.9534C68.7751 72.2549 68.7553 72.5171 68.7247 72.7274C68.6927 72.947 68.6533 73.0764 68.6246 73.1341L69.0225 73.3321L69.4204 73.53C69.5129 73.3441 69.5683 73.1026 69.6043 72.8556C69.6416 72.5993 69.6632 72.2992 69.6707 71.974C69.6859 71.3232 69.6455 70.5463 69.5505 69.7693C69.4556 68.9934 69.3046 68.2035 69.0933 67.5308C68.8887 66.8793 68.6043 66.2586 68.1958 65.9038L67.9043 66.2393ZM69.0225 73.3321L68.6265 73.1303C68.4901 73.3979 67.881 74.7091 67.3131 75.9375C67.0275 76.5552 66.7501 77.1567 66.5442 77.6038C66.4412 77.8274 66.3561 78.0123 66.2967 78.1414C66.267 78.2059 66.2438 78.2565 66.2279 78.291C66.22 78.3082 66.2139 78.3214 66.2099 78.3302C66.2078 78.3347 66.2063 78.3381 66.2052 78.3403C66.2047 78.3414 66.2043 78.3423 66.2041 78.3429C66.2039 78.3431 66.2038 78.3434 66.2038 78.3435C66.2037 78.3436 66.2037 78.3436 66.2037 78.3437C66.2037 78.3437 66.2037 78.3437 66.6075 78.5294C67.0113 78.715 67.0113 78.715 67.0113 78.715C67.0113 78.7149 67.0114 78.7149 67.0114 78.7148C67.0114 78.7147 67.0115 78.7144 67.0117 78.7142C67.0119 78.7136 67.0123 78.7127 67.0128 78.7116C67.0139 78.7094 67.0154 78.706 67.0175 78.7016C67.0215 78.6927 67.0276 78.6796 67.0355 78.6624C67.0513 78.628 67.0746 78.5774 67.1042 78.513C67.1636 78.384 67.2486 78.1991 67.3516 77.9757C67.5574 77.5288 67.8346 76.9277 68.1199 76.3105C68.6939 75.0691 69.2922 73.7817 69.4185 73.5339L69.0225 73.3321ZM66.6075 78.5294L66.2054 78.3399C65.7969 79.2072 66.1512 80.2452 67.0178 80.6531L67.2071 80.251L67.3964 79.8489C66.9884 79.6568 66.8034 79.1563 67.0095 78.7188L66.6075 78.5294ZM67.2071 80.251L67.0153 80.652C67.8766 81.064 68.9262 80.6768 69.3259 79.8401L68.9249 79.6485L68.5238 79.4569C68.3336 79.8552 67.8125 80.048 67.3989 79.8501L67.2071 80.251ZM68.9249 79.6485L69.2826 79.9122L73.7924 73.793L73.4346 73.5294L73.0768 73.2657L68.5671 79.3848L68.9249 79.6485ZM73.4346 73.5294L73.0776 73.7941L77.4643 79.711L77.8213 79.4464L78.1784 79.1817L73.7916 73.2647L73.4346 73.5294ZM77.8213 79.4464L77.4265 79.6504C77.6957 80.1714 78.071 80.5362 78.5138 80.7114C78.9595 80.8879 79.4309 80.8543 79.845 80.6541L79.6514 80.254L79.4579 79.8539C79.252 79.9535 79.0396 79.9636 78.8409 79.8849C78.6392 79.8051 78.4094 79.6162 78.2162 79.2423L77.8213 79.4464ZM79.6514 80.254L79.8437 80.6546C80.2553 80.4571 80.5801 80.1145 80.7341 79.6728L80.3145 79.5264L79.8949 79.38C79.824 79.5833 79.6725 79.7509 79.4591 79.8533L79.6514 80.254ZM80.3145 79.5264L80.7342 79.6728C80.884 79.2431 80.8651 78.7676 80.6618 78.3475L80.2618 78.5411L79.8617 78.7347C79.9584 78.9344 79.9699 79.1649 79.8948 79.3801L80.3145 79.5264ZM80.2618 78.5411L80.6716 78.3691C80.6477 78.3123 78.4991 73.646 78.2413 73.1304L77.8438 73.3292L77.4463 73.5279C77.5694 73.7741 78.1647 75.056 78.7374 76.2948C79.0224 76.9114 79.3001 77.5136 79.5078 77.9645C79.6116 78.19 79.6979 78.3776 79.7588 78.5102C79.8233 78.6505 79.8533 78.7163 79.852 78.7131L80.2618 78.5411ZM77.8438 73.3292L78.2414 73.1306C78.2129 73.0736 78.1736 72.945 78.1416 72.7257C78.1109 72.5158 78.091 72.2539 78.0839 71.9527C78.0696 71.3507 78.1067 70.6173 78.1968 69.8776C78.2869 69.1368 78.4285 68.4037 78.6181 67.7984C78.8144 67.1717 79.0391 66.7596 79.2485 66.5778L78.9571 66.2423L78.6657 65.9067C78.2576 66.261 77.9738 66.8816 77.7699 67.5326C77.5593 68.205 77.4088 68.9946 77.3144 69.7702C77.2199 70.5469 77.1799 71.3235 77.1953 71.9737C77.203 72.2986 77.2246 72.5983 77.262 72.8543C77.2981 73.1008 77.3535 73.3421 77.4462 73.5278L77.8438 73.3292ZM78.9571 66.2423L79.2466 66.5795C79.7801 66.1214 82.656 63.5182 82.6821 63.4946L82.3838 63.1651L82.0856 62.8356C82.0515 62.8664 79.1895 65.457 78.6676 65.905L78.9571 66.2423ZM82.3838 63.1651L82.6617 63.512C83.3072 62.9949 83.4537 62.1164 82.9592 61.4856L82.6094 61.7598L82.2597 62.034C82.4198 62.2383 82.4153 62.5705 82.106 62.8182L82.3838 63.1651ZM73.4317 48.5909L73.4317 49.0353C76.346 49.0354 78.7167 51.4046 78.7167 54.3214H79.1612H79.6056C79.6056 50.9136 76.8369 48.1465 73.4317 48.1464L73.4317 48.5909ZM79.1612 54.3214L78.7167 54.3213C78.7165 57.2384 76.3455 59.6112 73.4317 59.6113L73.4317 60.0557L73.4317 60.5002C76.8372 60.5001 79.6054 57.7285 79.6056 54.3214L79.1612 54.3214ZM73.4317 60.0557V59.6113C70.5148 59.6113 68.1437 57.2402 68.1437 54.3233H67.6993H67.2548C67.2548 57.7311 70.0239 60.5002 73.4317 60.5002V60.0557ZM67.6993 54.3233L68.1437 54.3233C68.1438 51.4065 70.5149 49.0353 73.4317 49.0353V48.5909V48.1464C70.0239 48.1464 67.2549 50.9156 67.2548 54.3233L67.6993 54.3233ZM73.4317 51.0137V50.5693C71.3611 50.5693 69.6796 52.2537 69.6796 54.3214H70.1241H70.5685C70.5685 52.7442 71.8525 51.4582 73.4317 51.4582V51.0137ZM70.1241 54.3214L69.6796 54.3214C69.6799 56.3885 71.3608 58.0754 73.4317 58.0754V57.6309V57.1865C71.853 57.1865 70.5687 55.8987 70.5685 54.3213L70.1241 54.3214ZM73.4317 57.6309L73.4317 58.0754C75.4975 58.0753 77.1806 56.3883 77.1808 54.3214L76.7364 54.3214L76.2919 54.3213C76.2918 55.8987 75.0053 57.1864 73.4317 57.1865L73.4317 57.6309ZM76.7364 54.3214H77.1808C77.1808 52.254 75.5 50.5694 73.4317 50.5693L73.4317 51.0137L73.4317 51.4582C75.0081 51.4583 76.2919 52.744 76.2919 54.3214H76.7364ZM75.2051 35.919L75.4692 35.5616C74.919 35.155 74.1539 34.9758 73.432 34.9754C72.7101 34.9749 71.9451 35.1532 71.3948 35.5581L71.6583 35.9161L71.9217 36.274C72.2714 36.0167 72.8299 35.8639 73.4315 35.8643C74.033 35.8646 74.5914 36.0181 74.941 36.2765L75.2051 35.919ZM71.6583 35.9161L71.3948 35.5581L49.3157 51.8052L49.5792 52.1631L49.8426 52.5211L71.9217 36.274L71.6583 35.9161ZM49.5792 52.1631L49.3153 51.8055C48.8208 52.1702 48.4923 52.7114 48.3968 53.3242L48.836 53.3926L49.2751 53.4611C49.3347 53.079 49.5376 52.7461 49.843 52.5208L49.5792 52.1631ZM48.836 53.3926L48.3961 53.3289C48.3074 53.941 48.4546 54.5568 48.8203 55.0558L49.1788 54.793L49.5372 54.5303C49.313 54.2243 49.2196 53.8443 49.2758 53.4564L48.836 53.3926ZM49.1788 54.793L48.8212 55.0571L49.4335 55.8862L49.7911 55.6221L50.1486 55.3581L49.5363 54.529L49.1788 54.793ZM49.7911 55.6221L49.4336 55.8863C50.1656 56.8767 51.6857 57.1169 52.6871 56.3806L52.4239 56.0225L52.1606 55.6644C51.5571 56.1081 50.5915 55.9575 50.1485 55.358L49.7911 55.6221ZM52.4239 56.0225L52.6873 56.3805L70.4861 43.2858L70.2227 42.9278L69.9593 42.5698L52.1605 55.6645L52.4239 56.0225ZM70.2227 42.9278L70.4866 43.2854C71.2687 42.7085 72.3161 42.3801 73.4327 42.3801L73.4327 41.9356L73.4327 41.4912C72.1495 41.4912 70.9116 41.8673 69.9589 42.5701L70.2227 42.9278ZM73.4327 41.9356V42.3801C74.5491 42.3801 75.5926 42.7064 76.3832 43.2846L76.6456 42.9258L76.9079 42.5671C75.9486 41.8654 74.7162 41.4912 73.4327 41.4912V41.9356ZM76.6456 42.9258L76.3821 43.2838L94.178 56.3805L94.4415 56.0225L94.7049 55.6646L76.909 42.5679L76.6456 42.9258ZM94.4415 56.0225L94.1787 56.381C95.1827 57.1168 96.6969 56.8764 97.4312 55.887L97.0743 55.6221L96.7174 55.3573C96.2717 55.9578 95.3101 56.1082 94.7042 55.6641L94.4415 56.0225ZM97.0743 55.6221L97.4322 55.8856L98.0425 55.0565L97.6846 54.793L97.3267 54.5295L96.7164 55.3586L97.0743 55.6221ZM97.6846 54.793L98.0425 55.0566C98.8028 54.0243 98.581 52.562 97.5464 51.8062L97.2842 52.1651L97.0221 52.524C97.6574 52.9881 97.7964 53.8918 97.3268 54.5295L97.6846 54.793ZM97.2842 52.1651L97.5477 51.8072L88.7684 45.3452L88.5049 45.7032L88.2415 46.0611L97.0208 52.523L97.2842 52.1651ZM88.5049 45.7032H88.9494V37.8214H88.5049H88.0605V45.7032H88.5049ZM88.5049 37.8214H88.9494C88.9494 37.1059 88.3698 36.5263 87.6543 36.5263V36.9708V37.4152C87.8789 37.4152 88.0605 37.5968 88.0605 37.8214H88.5049ZM87.6543 36.9708V36.5263H84.2999V36.9708V37.4152H87.6543V36.9708ZM84.2999 36.9708V36.5263C83.5838 36.5263 83.0107 37.1091 83.0107 37.8214H83.4551H83.8996C83.8996 37.5937 84.081 37.4152 84.2999 37.4152V36.9708ZM83.4551 37.8214H83.0107V41.9835H83.4551H83.8996V37.8214H83.4551ZM83.4551 41.9835L83.7184 41.6254L75.4684 35.5609L75.2051 35.919L74.9419 36.2771L83.1919 42.3416L83.4551 41.9835Z" fill="white"></path></svg>