<svg xmlns="http://www.w3.org/2000/svg" width="412" height="217" viewBox="0 0 412 217" fill="none"><path d="M29.9056 72.3949L23.0354 172.922C22.3619 183.22 31.3875 191.178 43.242 190.71L359.679 176.433C371.399 175.965 381.637 167.07 382.31 156.772L389.046 56.3622C389.854 46.0639 380.694 37.9888 368.974 38.5741L52.537 52.7341C40.6825 53.3194 30.5791 62.2135 29.9056 72.3949Z" fill="#F1524B"></path><path d="M22.7632 147.995L16.0276 47.5851C15.354 37.2866 24.3796 29.2117 36.2344 29.7969L352.671 43.9573C364.391 44.5424 374.629 53.4365 375.303 63.7351L382.038 164.145C382.847 174.443 373.686 182.518 361.966 181.933L45.5294 167.773C33.6747 167.188 23.5713 158.293 22.7632 147.995Z" fill="#61B6EB"></path><path d="M11.1837 58.4685L4.4481 158.995C3.63976 169.294 12.8002 177.252 24.5201 176.784L340.957 162.506C352.812 162.038 362.915 153.144 363.589 142.846L370.459 42.3189C371.132 32.0206 362.107 24.0626 350.252 24.6477L33.8149 38.8081C22.0952 39.393 11.8572 48.17 11.1837 58.4685Z" fill="white"></path><path d="M44.8541 42.3187L361.291 28.1583C362.1 28.1583 363.043 28.1583 363.851 28.1583C369.239 28.3924 373.954 30.3818 377.456 33.4246C380.959 36.4673 383.249 40.6803 383.519 45.4785C383.519 46.1807 383.519 46.8828 383.519 47.702L376.648 148.112C376.244 153.729 373.415 158.878 368.97 162.74C364.524 166.602 358.597 169.177 352.131 169.411L35.6937 183.688C34.8854 183.688 34.0772 183.688 33.2689 183.688C27.7457 183.337 23.0308 181.348 19.5282 178.305C16.0258 175.262 13.8704 171.049 13.601 166.368C13.4663 165.666 13.4663 164.847 13.601 164.145L20.3366 63.6178C20.7406 58.0005 23.7044 52.8513 28.1498 48.9893C32.4607 45.1273 38.5228 42.6697 44.8541 42.3187ZM361.426 31.552L44.989 45.7124C39.6004 45.9465 34.6161 48.1699 30.8443 51.4467C27.0724 54.7234 24.5129 59.0534 24.2435 63.8516L17.3733 164.261C17.3733 164.964 17.3733 165.549 17.3733 166.134C17.6427 170.113 19.394 173.506 22.2229 175.964C25.0518 178.422 28.9585 180.06 33.4039 180.294C34.0774 180.294 34.8858 180.294 35.5593 180.294L351.996 166.017C357.385 165.783 362.369 163.676 366.141 160.4C370.048 157.123 372.472 152.676 372.877 147.995L379.612 47.4679C379.612 46.8828 379.612 46.1805 379.612 45.5954C379.343 41.7336 377.592 38.3397 374.763 35.7651C371.934 33.3075 368.027 31.7861 363.581 31.552C362.908 31.4351 362.234 31.4351 361.426 31.552Z" fill="black"></path><path d="M36.5069 195.04C35.4293 195.04 35.1599 196.444 36.3723 196.678C36.3723 196.678 36.5069 196.678 36.6417 196.678L38.5277 196.562C39.6053 196.562 39.8747 195.157 38.6623 194.923C38.5277 194.923 38.5277 194.923 38.3928 194.923L36.5069 195.04ZM363.586 187.316C364.664 187.316 365.068 186.146 364.125 185.678C363.99 185.678 363.856 185.561 363.721 185.561H361.835C360.757 185.444 360.353 186.614 361.296 187.082C361.431 187.199 361.566 187.199 361.7 187.199L363.586 187.316ZM355.908 186.848C356.985 186.965 357.39 185.795 356.447 185.327C356.312 185.21 356.177 185.21 356.042 185.21L354.022 185.093C353.079 185.093 352.675 186.263 353.618 186.731C353.753 186.731 353.887 186.731 354.022 186.848H355.908ZM348.229 186.497C349.172 186.497 349.576 185.327 348.633 184.859C348.499 184.859 348.364 184.859 348.229 184.859L346.343 184.742C345.265 184.625 344.861 185.795 345.804 186.263C345.939 186.38 346.074 186.38 346.208 186.38L348.229 186.497ZM340.416 186.146C341.494 186.146 341.898 184.976 340.955 184.507C340.82 184.507 340.685 184.391 340.551 184.391L338.665 184.274C337.587 184.274 337.183 185.444 338.126 185.912C338.261 185.912 338.395 186.029 338.53 186.029L340.416 186.146ZM332.737 185.678C333.68 185.795 334.084 184.625 333.141 184.156C333.007 184.04 332.872 184.039 332.737 184.039L330.851 183.923C329.774 183.923 329.37 185.093 330.312 185.561C330.447 185.561 330.582 185.561 330.717 185.561L332.737 185.678ZM324.924 185.327C326.002 185.327 326.406 184.156 325.463 183.688C325.328 183.688 325.193 183.688 325.059 183.688L323.173 183.571C322.095 183.454 321.691 184.625 322.634 185.093C322.769 185.21 322.903 185.21 323.038 185.21L324.924 185.327ZM317.246 184.976C318.189 184.976 318.593 183.805 317.65 183.337C317.515 183.22 317.38 183.22 317.246 183.22L315.36 183.103C314.282 183.103 313.878 184.274 314.821 184.742C314.955 184.742 315.09 184.859 315.225 184.859L317.246 184.976ZM309.432 184.507C310.51 184.625 310.914 183.337 309.971 182.986C309.836 182.869 309.702 182.869 309.567 182.869L307.681 182.752C306.603 182.752 306.199 183.922 307.142 184.391C307.277 184.391 307.412 184.391 307.546 184.391L309.432 184.507ZM301.754 184.156C302.697 184.156 303.101 182.986 302.158 182.518C302.023 182.518 302.023 182.401 301.888 182.401H300.272H299.733C298.655 182.401 298.52 183.805 299.598 184.039C299.733 184.039 299.733 184.039 299.868 184.039H300.272L301.754 184.156ZM294.075 184.391C295.153 184.274 295.422 182.986 294.21 182.635C294.075 182.635 294.075 182.635 293.94 182.635L292.054 182.752C290.977 182.752 290.707 184.156 291.92 184.391C291.92 184.391 292.054 184.507 292.189 184.391H294.075ZM286.396 184.742C287.339 184.742 287.609 183.337 286.531 183.103C286.396 183.103 286.262 182.986 286.262 182.986L284.241 183.103C283.163 183.22 283.029 184.507 284.106 184.858C284.241 184.858 284.241 184.858 284.376 184.858L286.396 184.742ZM278.583 185.093C279.661 185.093 279.93 183.688 278.718 183.454C278.583 183.454 278.583 183.454 278.448 183.454H276.563C275.485 183.571 275.215 184.976 276.428 185.21C276.428 185.21 276.563 185.21 276.697 185.21L278.583 185.093ZM270.905 185.444C271.982 185.444 272.117 184.039 271.039 183.805C270.905 183.805 270.77 183.805 270.77 183.805L268.749 183.923C267.672 183.923 267.537 185.327 268.614 185.561C268.749 185.561 268.749 185.561 268.884 185.561L270.905 185.444ZM263.092 185.795C264.169 185.795 264.439 184.391 263.226 184.156C263.226 184.156 263.092 184.156 262.957 184.156L261.071 184.274C259.993 184.274 259.724 185.678 260.936 185.912C260.936 185.912 261.071 185.912 261.206 185.912L263.092 185.795ZM255.413 186.263C256.491 186.146 256.625 184.742 255.548 184.507C255.413 184.507 255.278 184.507 255.278 184.507L253.258 184.625C252.18 184.625 252.045 186.029 253.123 186.263C253.258 186.263 253.392 186.263 253.392 186.263H255.413ZM247.6 186.614C248.677 186.497 248.947 185.21 247.734 184.976C247.734 184.859 247.6 184.858 247.465 184.858L245.579 184.976C244.501 185.093 244.232 186.38 245.444 186.614C245.444 186.731 245.579 186.731 245.714 186.731L247.6 186.614ZM239.921 186.965C240.999 186.965 241.134 185.561 240.056 185.327C239.921 185.327 239.921 185.327 239.786 185.327H237.766C236.688 185.444 236.553 186.731 237.631 187.082C237.766 187.082 237.9 187.082 237.9 187.082L239.921 186.965ZM232.108 187.316C233.186 187.316 233.455 185.912 232.242 185.678C232.242 185.678 232.108 185.678 231.973 185.678L230.087 185.795C229.009 185.795 228.74 187.199 229.952 187.433C230.087 187.433 230.087 187.433 230.222 187.433L232.108 187.316ZM224.429 187.667C225.507 187.667 225.642 186.263 224.564 186.029C224.429 186.029 224.429 186.029 224.294 186.029L222.274 186.146C221.331 186.146 221.061 187.55 222.139 187.784C222.274 187.784 222.408 187.784 222.408 187.784L224.429 187.667ZM216.616 188.018C217.694 188.018 217.963 186.614 216.751 186.38C216.751 186.38 216.616 186.38 216.481 186.38L214.595 186.497C213.517 186.497 213.248 187.901 214.461 188.135C214.595 188.135 214.595 188.135 214.73 188.135L216.616 188.018ZM208.937 188.486C210.015 188.369 210.15 187.082 209.072 186.731C208.937 186.731 208.937 186.731 208.803 186.731L206.782 186.848C205.839 186.848 205.569 188.252 206.647 188.486C206.782 188.486 206.917 188.486 206.917 188.486H208.937ZM201.124 188.837C202.202 188.721 202.471 187.433 201.259 187.199C201.259 187.082 201.124 187.082 200.989 187.082L199.104 187.199C198.026 187.316 197.756 188.603 198.969 188.837C199.104 188.955 199.104 188.955 199.238 188.955L201.124 188.837ZM193.446 189.189C194.523 189.189 194.658 187.784 193.581 187.55C193.446 187.55 193.446 187.55 193.311 187.55H191.425C190.348 187.667 190.078 189.072 191.156 189.306C191.29 189.306 191.425 189.306 191.425 189.306L193.446 189.189ZM185.632 189.54C186.71 189.54 186.98 188.135 185.767 187.901C185.767 187.901 185.632 187.901 185.498 187.901L183.612 188.018C182.534 188.018 182.265 189.423 183.477 189.657C183.612 189.657 183.612 189.657 183.747 189.657L185.632 189.54ZM177.954 189.891C179.032 189.891 179.166 188.486 178.089 188.252C177.954 188.252 177.954 188.252 177.819 188.252L175.933 188.369C174.855 188.369 174.586 189.774 175.664 190.008C175.798 190.008 175.933 190.008 175.933 190.008L177.954 189.891ZM170.141 190.359C171.218 190.242 171.488 188.837 170.275 188.603C170.275 188.603 170.141 188.603 170.006 188.603L168.12 188.72C167.042 188.72 166.773 190.125 167.985 190.359C168.12 190.359 168.12 190.359 168.255 190.359L170.141 190.359ZM162.462 190.71C163.54 190.593 163.675 189.306 162.597 188.954C162.462 188.954 162.462 188.954 162.327 188.954L160.441 189.071C159.364 189.071 159.094 190.476 160.172 190.71C160.307 190.71 160.441 190.827 160.441 190.71L162.462 190.71ZM154.649 191.061C155.726 191.061 155.996 189.657 154.783 189.423C154.783 189.423 154.649 189.306 154.514 189.423H152.628C151.55 189.54 151.281 190.827 152.493 191.178C152.628 191.178 152.628 191.178 152.763 191.178L154.649 191.061ZM146.97 191.412C148.048 191.412 148.183 190.008 147.105 189.774C146.97 189.774 146.97 189.774 146.835 189.774H144.949C143.872 189.891 143.602 191.295 144.815 191.529H144.949L146.97 191.412ZM139.157 191.763C140.235 191.763 140.504 190.359 139.292 190.125H139.157L137.136 190.242C136.059 190.242 135.924 191.646 137.002 191.88C137.136 191.88 137.136 191.88 137.271 191.88L139.157 191.763ZM131.478 192.114C132.556 192.114 132.691 190.71 131.613 190.476C131.478 190.476 131.478 190.476 131.344 190.476L129.458 190.593C128.38 190.593 128.111 191.997 129.323 192.231H129.458L131.478 192.114ZM123.665 192.582C124.743 192.465 125.012 191.061 123.8 190.827H123.665L121.644 190.944C120.567 190.944 120.432 192.348 121.51 192.582C121.644 192.582 121.644 192.582 121.779 192.582L123.665 192.582ZM115.987 192.934C117.064 192.817 117.199 191.529 116.121 191.295C115.987 191.178 115.987 191.178 115.852 191.178L113.966 191.295C112.888 191.412 112.619 192.699 113.831 192.934C113.831 193.051 113.966 193.051 113.966 193.051L115.987 192.934ZM108.173 193.285C109.251 193.285 109.521 191.88 108.308 191.646H108.173H106.153C105.075 191.763 104.94 193.05 106.018 193.402C106.153 193.402 106.153 193.402 106.288 193.402L108.173 193.285ZM100.495 193.636C101.573 193.636 101.707 192.231 100.63 191.997C100.495 191.997 100.495 191.997 100.36 191.997L98.4744 192.114C97.3966 192.114 97.1273 193.519 98.3395 193.753C98.3395 193.753 98.4744 193.753 98.609 193.753L100.495 193.636ZM92.6815 193.987C93.7591 193.987 94.0285 192.583 92.951 192.348C92.8161 192.348 92.6815 192.348 92.6815 192.348L90.6608 192.465C89.5832 192.465 89.4483 193.87 90.5261 194.104C90.6608 194.104 90.6607 194.104 90.7956 194.104L92.6815 193.987ZM85.003 194.338C86.0807 194.338 86.35 192.934 85.1376 192.699C85.003 192.699 85.0029 192.699 84.8681 192.699L82.9822 192.817C81.9046 192.817 81.6352 194.221 82.8476 194.455C82.8476 194.455 82.9822 194.455 83.117 194.455L85.003 194.338ZM77.1898 194.806C78.2676 194.689 78.5368 193.402 77.4592 193.051C77.3246 193.051 77.1898 193.051 77.1898 193.051L75.169 193.168C74.0914 193.168 73.9566 194.572 75.0344 194.806C75.169 194.806 75.169 194.806 75.3038 194.806H77.1898ZM69.5112 195.157C70.589 195.04 70.8582 193.753 69.6458 193.519C69.5112 193.402 69.5112 193.402 69.3764 193.402L67.4904 193.519C66.4128 193.636 66.1434 194.923 67.3558 195.157C67.3558 195.274 67.4904 195.274 67.6253 195.274L69.5112 195.157ZM61.698 195.508C62.7756 195.508 63.045 194.104 61.9675 193.87C61.8328 193.87 61.698 193.87 61.698 193.87H59.6772C58.5996 193.987 58.4648 195.274 59.5426 195.625C59.6772 195.625 59.6772 195.625 59.8121 195.625L61.698 195.508ZM54.0194 195.859C55.097 195.859 55.3665 194.455 54.154 194.221C54.0194 194.221 54.0194 194.221 53.8846 194.221L51.9987 194.338C50.9209 194.338 50.6516 195.742 51.864 195.976C51.864 195.976 51.9987 195.976 52.1335 195.976L54.0194 195.859ZM46.3409 196.21C47.2838 196.21 47.5533 194.806 46.4757 194.572C46.3409 194.572 46.2062 194.572 46.2062 194.572L44.1855 194.689C43.1079 194.689 42.9731 196.093 44.0508 196.327C44.1855 196.327 44.1855 196.327 44.3203 196.327L46.3409 196.21Z" fill="black"></path><path d="M369.512 185.014C368.299 185.418 368.838 187.169 370.05 186.9L371.936 186.496C373.149 186.092 372.745 184.34 371.532 184.61C370.859 184.744 370.185 184.879 369.512 185.014ZM394.568 54.3438C394.703 53.2661 393.221 52.862 392.816 53.8049C392.682 53.9396 392.682 54.0744 392.682 54.209L392.547 56.095C392.412 56.3644 392.547 56.499 392.682 56.7685C393.221 57.442 394.298 57.1725 394.433 56.2296L394.568 54.3438ZM394.029 62.0224C394.029 60.9446 392.547 60.5405 392.143 61.6183C392.143 61.753 392.143 61.7529 392.008 61.8878L391.874 63.7737C391.874 64.8515 393.356 65.3902 393.76 64.3126C393.894 64.178 393.894 64.0432 393.894 63.9086L394.029 62.0224ZM393.49 69.8356C393.49 68.7578 392.008 68.2191 391.604 69.2967C391.47 69.4315 391.47 69.5661 391.47 69.5661L391.335 71.5869C391.2 72.6647 392.817 73.0688 393.221 71.991C393.221 71.8564 393.221 71.8563 393.221 71.7215L393.49 69.8356ZM392.816 77.5142C392.951 76.4364 391.469 76.0323 390.931 77.1101C390.931 77.2447 390.931 77.2447 390.931 77.3796C390.931 78.0531 390.796 78.592 390.796 79.2655C390.661 80.3433 392.143 80.7474 392.682 79.6696C392.682 79.6696 392.682 79.5349 392.682 79.4001C392.816 78.8612 392.816 78.1877 392.816 77.5142ZM392.278 85.1927C392.412 84.2498 390.931 83.7109 390.526 84.6539C390.392 84.7885 390.392 84.9233 390.392 85.0579L390.257 87.0787C390.122 87.4827 390.392 87.887 390.796 88.0216C391.469 88.2911 392.143 87.8868 392.143 87.2133L392.278 85.1927ZM391.739 93.006C391.739 91.6589 389.853 91.5241 389.853 92.8713L389.718 94.7572C389.584 96.1043 391.47 96.2391 391.604 94.8919L391.739 93.006ZM391.2 100.685C391.2 99.4721 389.314 99.3375 389.314 100.55L389.179 102.571C389.045 103.783 390.931 103.918 391.065 102.705L391.2 100.685ZM390.661 108.498C390.661 107.151 388.775 107.016 388.775 108.363L388.641 110.249C388.506 111.596 390.392 111.596 390.527 110.384L390.661 108.498ZM390.122 116.176C390.257 114.964 388.506 114.694 388.236 115.907C388.102 116.58 388.102 117.389 388.102 117.928C387.967 119.14 389.718 119.409 389.988 118.332C389.988 118.197 389.988 118.197 389.988 118.062L390.122 116.176ZM389.584 123.855C389.718 122.642 387.967 122.508 387.698 123.72V123.855L387.563 125.741C387.563 126.953 389.179 127.223 389.449 126.01L389.584 125.876V123.855ZM389.179 131.668C389.314 130.456 387.563 130.186 387.293 131.399V131.533C387.293 132.207 387.159 132.88 387.159 133.554C387.159 134.632 388.641 134.901 389.045 133.958C389.045 133.823 389.045 133.689 389.045 133.554C389.179 132.88 389.179 132.342 389.179 131.668ZM388.775 139.347C388.91 138.269 387.159 138 386.889 139.077C386.889 139.212 386.889 139.212 386.889 139.347C386.889 139.886 386.755 140.559 386.755 141.233C386.755 142.31 388.371 142.714 388.641 141.502C388.775 141.502 388.775 141.367 388.775 141.367C388.775 140.694 388.775 140.02 388.775 139.347ZM388.506 147.16C388.506 146.756 388.371 146.486 388.102 146.351C387.428 145.813 386.62 146.351 386.62 147.025L386.485 149.046C386.485 150.258 388.371 150.393 388.506 149.046L388.506 147.16ZM388.371 154.838C388.371 153.626 386.62 153.491 386.485 154.704V154.838L386.351 156.724C386.351 157.937 388.102 158.071 388.371 156.859C388.371 156.32 388.371 155.512 388.371 154.838ZM388.236 162.652C388.236 161.305 386.351 161.305 386.351 162.652C386.351 163.191 386.351 163.864 386.351 164.538C386.216 165.616 387.832 165.885 388.236 164.807C388.236 164.807 388.236 164.672 388.236 164.538C388.236 163.999 388.236 163.325 388.236 162.652ZM387.698 170.465C387.832 169.387 386.351 168.848 385.812 170.061C385.812 170.061 385.812 170.061 385.812 170.196C385.677 170.869 385.542 171.408 385.542 172.081C385.273 173.159 386.755 173.698 387.293 172.62L387.428 172.486C387.563 171.812 387.563 171.138 387.698 170.465ZM385.407 178.144C385.946 177.201 384.599 176.258 383.791 177.066C383.791 177.201 383.791 177.201 383.656 177.335C383.387 177.739 383.117 178.278 382.713 178.817C382.578 178.952 382.578 179.221 382.578 179.491C382.578 180.299 383.656 180.703 384.33 179.895C384.734 179.491 385.138 178.817 385.407 178.144ZM379.48 183.801C380.558 183.262 379.75 181.646 378.672 182.05C377.998 182.319 377.459 182.589 376.92 182.858C375.843 183.262 376.247 184.879 377.459 184.744C377.459 184.744 377.459 184.609 377.594 184.609C378.268 184.34 378.807 184.071 379.48 183.801Z" fill="black"></path><path d="M344.996 38.7968C347.421 38.7968 349.711 39.7397 351.328 41.3562C352.944 43.1075 354.022 45.3975 354.022 47.8224C354.022 50.3818 352.944 52.672 351.328 54.2885C349.711 55.905 347.421 56.848 344.996 56.848C342.437 56.848 340.147 55.905 338.53 54.2885C336.914 52.672 335.836 50.3818 335.836 47.8224C335.836 45.3975 336.914 43.1075 338.53 41.3562C340.147 39.7397 342.437 38.7968 344.996 38.7968ZM348.633 44.1853C347.69 43.2424 346.343 42.5688 344.996 42.5688C343.514 42.5688 342.167 43.2424 341.224 44.1853C340.281 45.1283 339.742 46.3407 339.742 47.8226C339.742 49.3044 340.281 50.6515 341.224 51.5944C342.167 52.5374 343.514 53.0763 344.996 53.0763C346.343 53.0763 347.69 52.5374 348.633 51.5944C349.576 50.6515 350.25 49.3044 350.25 47.8226C350.25 46.3407 349.576 45.1283 348.633 44.1853Z" fill="black"></path><path d="M149.529 14.1446C151.28 14.1446 152.897 14.8181 153.974 16.0305C155.187 17.1081 155.86 18.7248 155.86 20.4759C155.86 22.2272 155.187 23.7091 153.974 24.9213C152.897 25.9989 151.28 26.6726 149.529 26.6726C147.777 26.6726 146.296 25.9991 145.083 24.9213C144.006 23.7089 143.332 22.227 143.332 20.4759C143.332 18.7246 144.006 17.1081 145.083 16.0305C146.296 14.8181 147.777 14.1446 149.529 14.1446ZM152.088 17.9165C151.415 17.2429 150.606 16.8389 149.529 16.8389C148.586 16.8389 147.643 17.2429 146.969 17.9165C146.296 18.59 145.892 19.3983 145.892 20.4759C145.892 21.4189 146.296 22.3618 146.969 23.0354C147.643 23.7089 148.586 24.113 149.529 24.113C150.607 24.113 151.415 23.7089 152.088 23.0354C152.762 22.3618 153.166 21.4189 153.166 20.4759C153.166 19.3983 152.762 18.59 152.088 17.9165Z" fill="#FF8296"></path><path d="M181.452 0C183.204 0 184.685 0.808344 185.898 1.88593C186.975 2.96373 187.649 4.58021 187.649 6.33132C187.649 8.08242 186.976 9.56429 185.898 10.7767C184.685 11.8543 183.204 12.6626 181.452 12.6626C179.701 12.6626 178.085 11.8543 177.007 10.7767C175.795 9.56429 175.121 8.08242 175.121 6.33132C175.121 4.58021 175.795 2.96352 177.007 1.88593C178.085 0.808134 179.701 0 181.452 0ZM184.012 3.77186C183.339 3.09834 182.396 2.69428 181.453 2.69428C180.375 2.69428 179.567 3.09834 178.893 3.77186C178.22 4.44538 177.816 5.25373 177.816 6.33132C177.816 7.27429 178.22 8.21726 178.893 8.89077C179.567 9.56429 180.375 9.96836 181.453 9.96836C182.396 9.96836 183.339 9.56429 184.012 8.89077C184.686 8.21726 185.09 7.27429 185.09 6.33132C185.09 5.25373 184.686 4.44538 184.012 3.77186Z" fill="#9900CC"></path><path d="M178.423 18.4552H175.395V27.6421H178.423V18.4552Z" fill="#4F82E8"></path><path d="M181.499 21.5774H172.309V24.606H181.499V21.5774Z" fill="#4F82E8"></path><path d="M392.812 31.657C394.563 31.657 396.045 32.3305 397.257 33.4083C398.335 34.6207 399.143 36.1026 399.143 37.8539C399.143 39.6052 398.335 41.2217 397.257 42.2993C396.045 43.3769 394.563 44.1852 392.812 44.1852C391.061 44.1852 389.444 43.3769 388.366 42.2993C387.289 41.2217 386.48 39.605 386.48 37.8539C386.48 36.1026 387.289 34.6207 388.366 33.4083C389.444 32.3305 391.061 31.657 392.812 31.657ZM395.371 35.2942C394.698 34.6207 393.755 34.2166 392.812 34.2166C391.734 34.2166 390.926 34.6207 390.253 35.2942C389.579 35.9677 389.175 36.9107 389.175 37.8537C389.175 38.9313 389.579 39.7396 390.253 40.4131C390.926 41.0867 391.734 41.4907 392.812 41.4907C393.755 41.4907 394.698 41.0867 395.371 40.4131C396.045 39.7396 396.449 38.9313 396.449 37.8537C396.449 36.9107 396.045 35.9677 395.371 35.2942Z" fill="#9900CC"></path><path d="M43.8411 9.96857H40.8125V19.1555H43.8411V9.96857Z" fill="#E0D207"></path><path d="M46.9561 13.0465H37.7656V16.0751H46.9561V13.0465Z" fill="#E0D207"></path><path d="M408.103 40.6829H405.074V49.8698H408.103V40.6829Z" fill="#E0D207"></path><path d="M411.12 43.8197H401.93V46.8483H411.12V43.8197Z" fill="#E0D207"></path><path d="M334.552 6.33124H331.523V15.5181H334.552V6.33124Z" fill="#FFFF00"></path><path d="M337.601 9.45337H328.41V12.482H337.601V9.45337Z" fill="#FFFF00"></path><path d="M34.3305 156.233C36.89 156.233 39.1802 157.176 40.7967 158.928C42.4131 160.544 43.4909 162.834 43.4909 165.259C43.4909 167.818 42.4134 170.109 40.7967 171.725C39.1802 173.342 36.89 174.419 34.3305 174.419C31.9057 174.419 29.6157 173.342 27.999 171.725C26.2477 170.108 25.3047 167.818 25.3047 165.259C25.3047 162.834 26.2477 160.544 27.999 158.928C29.6157 157.176 31.9059 156.233 34.3305 156.233ZM38.1026 161.622C37.1596 160.679 35.8126 160.005 34.3307 160.005C32.8489 160.005 31.6364 160.679 30.6935 161.622C29.7505 162.565 29.077 163.777 29.077 165.259C29.077 166.741 29.7505 168.088 30.6935 169.031C31.6364 169.974 32.8489 170.513 34.3307 170.513C35.8126 170.513 37.1596 169.974 38.1026 169.031C39.0456 168.088 39.5845 166.741 39.5845 165.259C39.5842 163.777 39.0456 162.565 38.1026 161.622Z" fill="black"></path><path d="M20.7709 192.468C22.5222 192.468 24.1387 193.142 25.2163 194.354C26.4287 195.432 27.1022 197.048 27.1022 198.8C27.1022 200.551 26.4287 202.033 25.2163 203.245C24.1385 204.323 22.522 204.996 20.7709 204.996C19.0196 204.996 17.5377 204.323 16.3255 203.245C15.2477 202.033 14.5742 200.551 14.5742 198.8C14.5742 197.048 15.2477 195.432 16.3255 194.354C17.538 193.142 19.0198 192.468 20.7709 192.468ZM23.3306 196.24C22.6571 195.567 21.8487 195.162 20.7711 195.162C19.8282 195.162 18.8852 195.566 18.2117 196.24C17.5382 196.914 17.1339 197.722 17.1339 198.8C17.1339 199.743 17.538 200.686 18.2117 201.359C18.8852 202.033 19.8282 202.437 20.7711 202.437C21.8489 202.437 22.6571 202.033 23.3306 201.359C24.0041 200.686 24.4084 199.743 24.4084 198.8C24.4082 197.722 24.0041 196.914 23.3306 196.24Z" fill="#00CCFF"></path><path d="M318.304 196.457C319.92 196.457 321.537 197.131 322.749 198.209C323.827 199.421 324.501 200.903 324.501 202.654C324.501 204.405 323.827 206.022 322.749 207.099C321.537 208.312 319.92 208.985 318.304 208.985C316.553 208.985 314.936 208.312 313.859 207.099C312.646 206.022 311.973 204.405 311.973 202.654C311.973 200.903 312.646 199.421 313.859 198.209C314.936 197.131 316.553 196.457 318.304 196.457ZM320.863 200.095C320.19 199.421 319.247 199.017 318.304 199.017C317.226 199.017 316.283 199.421 315.745 200.095C315.071 200.768 314.667 201.711 314.667 202.654C314.667 203.732 315.071 204.54 315.745 205.213C316.283 205.887 317.226 206.291 318.304 206.291C319.247 206.291 320.19 205.887 320.863 205.213C321.537 204.54 321.941 203.732 321.941 202.654C321.941 201.711 321.537 200.768 320.863 200.095Z" fill="#FF6633"></path><path d="M339.79 200.229H336.762V209.416H339.79V200.229Z" fill="#E0D207"></path><path d="M342.894 203.273H333.703V206.302H342.894V203.273Z" fill="#E0D207"></path><path d="M6.14973 186.137H3.12109V195.324H6.14973V186.137Z" fill="#E0D207"></path><path d="M9.19047 189.271H0V192.3H9.19047V189.271Z" fill="#E0D207"></path><path d="M147.286 207.369H144.258V216.556H147.286V207.369Z" fill="#4F82E8"></path><path d="M150.421 210.457H141.23V213.486H150.421V210.457Z" fill="#4F82E8"></path><path d="M65.6981 148.093L60.9999 148.335L49.6473 132.883L50.4706 148.877L45.7724 149.119L44.5615 125.594L49.2597 125.352L60.6191 140.938L59.789 124.811L64.4872 124.569L65.6981 148.093ZM79.7504 123.449C81.9495 123.336 83.964 123.744 85.7937 124.675C87.6456 125.604 89.1299 126.964 90.2466 128.755C91.3844 130.523 92.0128 132.562 92.1317 134.872C92.2506 137.182 91.8355 139.286 90.8863 141.184C89.9594 143.08 88.6226 144.586 86.8759 145.7C85.1514 146.813 83.1895 147.427 80.9904 147.54C78.7912 147.653 76.7657 147.245 74.9138 146.316C73.0841 145.385 71.5998 144.025 70.4608 142.235C69.3441 140.444 68.7263 138.393 68.6074 136.083C68.4885 133.773 68.8931 131.681 69.8211 129.807C70.7703 127.909 72.1071 126.404 73.8316 125.29C75.5783 124.176 77.5512 123.562 79.7504 123.449ZM79.9734 127.781C78.5961 127.852 77.4015 128.225 76.3894 128.901C75.3774 129.576 74.6018 130.518 74.0626 131.726C73.5445 132.911 73.3255 134.281 73.4055 135.836C73.4856 137.391 73.8447 138.742 74.4828 139.89C75.1421 141.014 76.0097 141.86 77.0858 142.429C78.1618 142.997 79.3885 143.246 80.7657 143.175C82.143 143.104 83.3376 142.731 84.3496 142.055C85.3617 141.379 86.1267 140.449 86.6448 139.264C87.184 138.056 87.4136 136.674 87.3335 135.119C87.2535 133.564 86.8839 132.225 86.2246 131.1C85.5865 129.953 84.7294 129.095 83.6533 128.527C82.5773 127.958 81.3506 127.71 79.9734 127.781ZM125.918 121.407L121.364 145.228L115.566 145.526L110.29 128.692L106.736 145.981L100.972 146.277L93.9967 123.05L99.0948 122.787L103.632 140.828L107.358 122.362L112.523 122.096L118.159 140.081L120.82 121.669L125.918 121.407ZM153.429 137.129C153.49 138.329 153.248 139.455 152.7 140.508C152.152 141.538 151.305 142.395 150.16 143.077C149.013 143.738 147.596 144.111 145.908 144.198C144.242 144.284 142.739 144.083 141.4 143.595C140.06 143.085 138.962 142.317 138.108 141.292C137.275 140.266 136.767 139.045 136.583 137.629L141.581 137.372C141.741 138.321 142.16 139.101 142.837 139.713C143.536 140.3 144.429 140.566 145.518 140.51C146.495 140.46 147.226 140.166 147.711 139.629C148.216 139.068 148.448 138.377 148.406 137.555C148.368 136.822 148.126 136.233 147.68 135.788C147.233 135.321 146.68 134.96 146.021 134.704C145.362 134.449 144.456 134.161 143.304 133.842C141.812 133.429 140.588 133.013 139.631 132.594C138.673 132.154 137.837 131.495 137.124 130.619C136.433 129.741 136.05 128.569 135.974 127.103C135.87 125.082 136.51 123.456 137.895 122.227C139.3 120.974 141.203 120.286 143.602 120.162C146.09 120.034 148.097 120.532 149.625 121.656C151.175 122.779 152.102 124.335 152.405 126.324L147.34 126.585C147.163 125.748 146.772 125.077 146.167 124.574C145.561 124.048 144.758 123.811 143.759 123.863C142.892 123.907 142.205 124.177 141.696 124.67C141.185 125.142 140.952 125.811 140.997 126.678C141.032 127.366 141.262 127.933 141.686 128.379C142.131 128.802 142.672 129.142 143.309 129.398C143.968 129.654 144.851 129.931 145.957 130.231C147.495 130.686 148.743 131.123 149.7 131.542C150.679 131.959 151.526 132.617 152.24 133.516C152.955 134.414 153.351 135.619 153.429 137.129ZM166.627 119.077C169.559 118.927 172.03 119.557 174.041 120.968C176.051 122.379 177.434 124.368 178.19 126.935L173.258 127.189C172.682 125.949 171.831 124.99 170.705 124.313C169.601 123.635 168.294 123.335 166.783 123.413C165.539 123.477 164.433 123.845 163.466 124.519C162.498 125.192 161.766 126.121 161.271 127.304C160.775 128.488 160.567 129.858 160.647 131.412C160.726 132.945 161.073 134.275 161.687 135.401C162.302 136.528 163.125 137.376 164.157 137.947C165.189 138.517 166.326 138.771 167.57 138.707C169.081 138.629 170.35 138.196 171.379 137.408C172.43 136.619 173.178 135.578 173.624 134.286L178.555 134.032C178.067 136.663 176.895 138.784 175.041 140.394C173.186 142.004 170.792 142.884 167.86 143.035C165.616 143.15 163.603 142.753 161.818 141.843C160.055 140.909 158.649 139.556 157.6 137.783C156.574 136.01 156.001 133.968 155.882 131.658C155.762 129.325 156.122 127.224 156.961 125.355C157.822 123.484 159.082 122.005 160.741 120.917C162.399 119.807 164.361 119.194 166.627 119.077ZM200.785 117.553L201.996 141.077L197.265 141.321L196.738 131.092L186.675 131.61L187.202 141.839L182.504 142.081L181.293 118.556L185.991 118.315L186.482 127.844L196.544 127.326L196.054 117.797L200.785 117.553ZM209.937 120.824L210.251 126.922L218.581 126.493L218.766 130.091L210.436 130.52L210.762 136.851L220.092 136.371L220.286 140.136L206.258 140.858L205.047 117.334L219.075 116.612L219.267 120.344L209.937 120.824ZM243.849 127.096C243.969 129.429 243.586 131.509 242.7 133.336C241.814 135.164 240.464 136.625 238.649 137.721C236.856 138.793 234.682 139.395 232.127 139.527L223.764 139.957L222.553 116.433L230.917 116.002C233.471 115.871 235.695 116.246 237.589 117.129C239.505 117.988 240.997 119.281 242.065 121.008C243.133 122.712 243.728 124.742 243.849 127.096ZM231.511 135.349C234.044 135.218 235.964 134.451 237.273 133.048C238.604 131.643 239.207 129.741 239.084 127.342C238.959 124.92 238.163 123.079 236.695 121.819C235.249 120.557 233.26 119.991 230.728 120.121L227.462 120.289L228.246 135.517L231.511 135.349ZM251.294 114.953L252.004 128.748C252.099 130.592 252.57 131.96 253.418 132.851C254.287 133.72 255.488 134.115 257.02 134.036C258.531 133.958 259.663 133.443 260.415 132.491C261.189 131.516 261.529 130.106 261.434 128.263L260.724 114.468L265.389 114.228L266.099 128.023C266.211 130.2 265.895 132.064 265.151 133.617C264.428 135.147 263.363 136.315 261.957 137.123C260.573 137.929 258.97 138.379 257.149 138.473C254.327 138.618 252.029 137.89 250.254 136.288C248.479 134.687 247.507 132.254 247.339 128.988L246.629 115.193L251.294 114.953ZM275.232 133.7L283.128 133.293L283.314 136.892L270.719 137.54L269.508 114.016L274.206 113.774L275.232 133.7ZM289.597 112.982L290.808 136.506L286.11 136.748L284.899 113.224L289.597 112.982ZM314.984 135.262L310.286 135.504L298.933 120.052L299.756 136.046L295.058 136.287L293.847 112.763L298.546 112.521L309.905 128.106L309.075 111.979L313.773 111.737L314.984 135.262ZM328.908 110.725C331.774 110.577 334.187 111.166 336.148 112.49C338.109 113.792 339.417 115.629 340.074 118.001L335.142 118.255C334.621 117.212 333.833 116.407 332.779 115.837C331.747 115.245 330.542 114.984 329.164 115.055C327.809 115.124 326.626 115.497 325.614 116.173C324.602 116.848 323.837 117.779 323.319 118.964C322.8 120.148 322.581 121.518 322.661 123.073C322.788 125.539 323.543 127.427 324.924 128.737C326.328 130.045 328.174 130.641 330.462 130.523C332.15 130.436 333.568 129.862 334.716 128.8C335.886 127.738 336.604 126.309 336.868 124.514L328.904 124.924L328.731 121.558L340.626 120.946L340.859 125.477C340.606 127.05 340.025 128.516 339.115 129.877C338.227 131.237 337.015 132.357 335.479 133.238C333.964 134.095 332.196 134.576 330.175 134.68C327.864 134.799 325.795 134.405 323.966 133.496C322.159 132.565 320.72 131.225 319.65 129.476C318.601 127.703 318.017 125.651 317.897 123.319C317.777 120.986 318.148 118.896 319.01 117.047C319.894 115.175 321.187 113.683 322.889 112.571C324.592 111.459 326.598 110.843 328.908 110.725ZM350.048 108.901L350.306 125.593L346.341 125.797L344.883 109.167L350.048 108.901ZM351.023 128.496L351.275 133.394L346.211 133.654L345.959 128.756L351.023 128.496Z" fill="#1E1E1E"></path><path d="M105.106 93.1005L99.5025 93.3338L89.5388 79.5027L90.1309 93.7239L84.5276 93.9572L83.5631 70.7904L89.1664 70.5571L99.1355 84.5192L98.5379 70.1669L104.141 69.9336L105.106 93.1005ZM119.006 68.9537C121.19 68.8627 123.189 69.2938 125.001 70.2468C126.834 71.1771 128.302 72.5275 129.404 74.2979C130.505 76.0464 131.103 78.0567 131.198 80.3286C131.292 82.6005 130.853 84.6648 129.88 86.5216C128.929 88.3775 127.579 89.8561 125.83 90.9574C124.103 92.036 122.158 92.6203 119.995 92.7103C117.832 92.8004 115.834 92.3802 114.001 91.4499C112.189 90.4969 110.721 89.1356 109.597 87.3661C108.495 85.5957 107.896 83.5746 107.802 81.3027C107.707 79.0308 108.136 76.9778 109.088 75.1437C110.061 73.2869 111.411 71.8192 113.139 70.7407C114.888 69.6394 116.843 69.0437 119.006 68.9537ZM119.223 74.1637C117.388 74.2401 115.949 74.9018 114.907 76.1488C113.886 77.373 113.418 79.0118 113.503 81.0653C113.588 83.0969 114.19 84.6911 115.311 85.8481C116.453 87.0041 117.942 87.5439 119.777 87.4675C121.59 87.392 123.018 86.7308 124.06 85.4838C125.102 84.2368 125.581 82.5975 125.496 80.5659C125.412 78.5343 124.798 76.9405 123.656 75.7845C122.536 74.6276 121.058 74.0873 119.223 74.1637ZM171.917 67.1118L167.343 90.5092L160.397 90.7984L156.049 75.4534L152.958 91.1081L146.012 91.3973L139.509 68.4611L145.604 68.2073L149.284 84.8603L152.649 67.914L158.777 67.6589L163.538 84.2668L165.855 67.3642L171.917 67.1118ZM189.999 85.3315L181.316 85.6931L180.05 89.9801L174.152 90.2257L181.681 66.8694L188.136 66.6006L197.581 89.2502L191.617 89.4985L189.999 85.3315ZM188.38 81.1317L185.142 72.7322L182.58 81.3732L188.38 81.1317ZM204.398 65.7594L205.362 88.9263L199.759 89.1596L198.794 65.9927L204.398 65.7594ZM224.912 64.9053L225.098 69.3617L218.806 69.6237L219.585 88.3341L213.949 88.5687L213.17 69.8583L206.944 70.1175L206.759 65.6611L224.912 64.9053ZM233.663 83.4479L241.134 83.1369L241.313 87.4294L228.239 87.9738L227.274 64.807L232.877 64.5737L233.663 83.4479ZM248.525 63.9222L249.49 87.089L243.887 87.3223L242.922 64.1555L248.525 63.9222ZM269.733 79.7141C269.784 80.9374 269.514 82.0756 268.923 83.1287C268.354 84.1809 267.471 85.0383 266.273 85.7009C265.097 86.3626 263.646 86.7294 261.92 86.8012C259.321 86.9094 257.154 86.3651 255.419 85.1681C253.684 83.9711 252.693 82.2398 252.445 79.9743L258.409 79.726C258.533 80.5962 258.867 81.2716 259.413 81.7522C259.98 82.2319 260.678 82.4544 261.508 82.4199C262.229 82.3899 262.789 82.1696 263.188 81.7591C263.586 81.3486 263.772 80.8157 263.745 80.1603C263.72 79.5705 263.503 79.0872 263.094 78.7103C262.706 78.3326 262.223 78.0354 261.645 77.8187C261.066 77.5803 260.267 77.3072 259.247 76.9995C257.763 76.558 256.541 76.1274 255.583 75.7078C254.645 75.2654 253.819 74.5995 253.104 73.7102C252.409 72.7982 252.031 71.5994 251.969 70.1139C251.912 68.7377 252.212 67.5326 252.869 66.4986C253.526 65.4646 254.456 64.66 255.657 64.0848C256.88 63.4868 258.288 63.1546 259.883 63.0882C262.461 62.9809 264.529 63.5075 266.087 64.6681C267.667 65.8278 268.6 67.4739 268.886 69.6066L262.823 69.859C262.682 69.0989 262.373 68.51 261.896 68.0922C261.44 67.6516 260.83 67.4473 260.066 67.4791C259.41 67.5064 258.882 67.7034 258.482 68.0702C258.103 68.4361 257.928 68.9577 257.956 69.6349C257.979 70.181 258.173 70.6434 258.539 71.0221C258.926 71.378 259.397 71.6647 259.954 71.8823C260.51 72.0998 261.309 72.3729 262.351 72.7015C263.857 73.1421 265.091 73.5941 266.051 74.0574C267.01 74.4989 267.848 75.1752 268.564 76.0864C269.281 76.9975 269.67 78.2068 269.733 79.7141ZM288.784 62.246L288.969 66.7024L282.678 66.9644L283.457 85.6748L277.821 85.9094L277.042 67.199L270.816 67.4582L270.631 63.0018L288.784 62.246ZM298.766 60.6815L298.745 76.7336L293.993 76.9315L292.638 60.9367L298.766 60.6815ZM299.414 79.3974L299.647 85.0007L293.814 85.2435L293.581 79.6402L299.414 79.3974Z" fill="#F1524B"></path><path d="M59.8159 110.563L338.357 95.1522" stroke="#959595" stroke-width="1.17129" stroke-dasharray="2.34 2.34"></path></svg>